<svg xmlns="http://www.w3.org/2000/svg" xmlns:xlink="http://www.w3.org/1999/xlink" width="601" height="701" viewBox="0 0 601 701">
  <defs>
    <style>
      .cls-1, .cls-10 {
        fill: #213e96;
      }

      .cls-1, .cls-5, .cls-6, .cls-7, .cls-8, .cls-9 {
        stroke: #231f20;
        stroke-miterlimit: 10;
      }

      .cls-2 {
        isolation: isolate;
      }

      .cls-3 {
        filter: url(#AI_BevelShadow_1);
      }

      .cls-4 {
        fill: #ec1c24;
      }

      .cls-5 {
        fill: none;
      }

      .cls-6 {
        fill: #fff;
      }

      .cls-7 {
        fill: #231f20;
      }

      .cls-8 {
        fill: url(#radial-gradient);
      }

      .cls-9 {
        fill: #404041;
      }

      .cls-11 {
        clip-path: url(#clip-path);
      }

      .cls-12 {
        opacity: 0.5;
        mix-blend-mode: multiply;
      }

      .cls-13 {
        fill: url(#linear-gradient);
      }
    </style>
    <filter id="AI_BevelShadow_1" x="-20%" y="-20%" width="140%" height="140%" name="AI_BevelShadow_1">
      <feGaussianBlur result="blur" stdDeviation="4" in="SourceAlpha"/>
      <feOffset result="offsetBlur" dx="4" dy="4" in="blur"/>
      <feSpecularLighting result="specOut" surfaceScale="5" specularExponent="10" in="blur">
        <fePointLight x="-5000" y="-10000" z="-20000"/>
      </feSpecularLighting>
      <feComposite result="specOut" operator="in" in="specOut" in2="SourceAlpha"/>
      <feComposite result="litPaint" operator="arithmetic" k2="1" k3="1" in="SourceGraphic" in2="specOut"/>
      <feMerge>
        <feMergeNode in="offsetBlur"/>
        <feMergeNode in="litPaint"/>
      </feMerge>
    </filter>
    <radialGradient id="radial-gradient" cx="1221.03" cy="992.74" r="55.86" gradientTransform="translate(-671.84 -356.06) scale(0.8 0.81)" gradientUnits="userSpaceOnUse">
      <stop offset="0" stop-color="#404041"/>
      <stop offset="1" stop-color="#231f20"/>
    </radialGradient>
    <clipPath id="clip-path">
      <ellipse class="cls-1" cx="675.16" cy="83.26" rx="48.15" ry="44.11"/>
    </clipPath>
    <linearGradient id="linear-gradient" x1="550.07" y1="29.84" x2="733.46" y2="159.52" gradientUnits="userSpaceOnUse">
      <stop offset="0" stop-color="#223f99"/>
      <stop offset="1" stop-color="#213e96"/>
      <stop offset="1" stop-color="#191d63"/>
    </linearGradient>
  </defs>
  <g class="cls-2">
    <g id="background">
      <g>
        <g class="cls-3">
          <path class="cls-4" d="M593.91,379.21c-6.87-6.88-18.9-9.53-30-7.58-2.76-31.9-9.7-56-15.35-67.84S533,281,532.25,280.25a38.3,38.3,0,0,0-6.52-5.89c-8.64-6.09-22.8-8.4-22.8-8.4a262.44,262.44,0,0,0-35.72-3c-14.22-42.59-36.68-78.67-64.49-104.2,22.37-4.44,52.6-37.15,52.91-65.41.76-52.51-86.31-95-88.13-92.78-.88,1.1,16.32,15.91,39.51,46.9C421.47,66,423.85,75.4,421.32,96.22c-1.42,14.31-2.12,21.47-7.23,28-3,4.37-17.21,15.25-21.07,26.21-26.08-20.76-56.22-32.62-88.34-32.62-33.93,0-65.66,13.23-92.73,36.22-5.28-10.64-23.2-18.71-27.3-22.5-6.45-5.26-8.71-12.09-13.22-25.74-7-19.73-6.76-29.45,3.36-50.72,16-35.41,29.58-53.69,28.47-54.56C201-1.24,125,59.64,137.17,110.69c6.41,27.16,42.36,52,65.31,52C165.3,199,138.33,254.44,128.9,318.91c-7,.31-20,0-32.62-5.72-9.67-4.37-14.76-9.9-19.89-15.47-11.24-12.22-14.25-23.76-15-27a50,50,0,0,1,.69-25.17c3.42-11.91,5.63-18.8,13.36-22.54,12.53-6.07,30-.63,43.9-4.68a15.54,15.54,0,0,0,5.89-2.89,8.38,8.38,0,0,0,2.83-6.7c-.29-10.79-17.8-17.95-31.93-15.31s-24.22,12.05-30,22c-3.35,5.77-1.25-29.1-15.6-34.07-5.85-2-13.34.38-19.39,3.18,0,0-2.72,2.77-3,5.28-.21,1.84,1,3,2.14,4.76,2.31,3.48.75,6,3.22,9.52a58,58,0,0,1,8.53,18.43c-6.26-10.41-16.2-22.59-31.57-21.87a11.47,11.47,0,0,0-5.17,1.25,7.61,7.61,0,0,0-2.94,3.64A20.18,20.18,0,0,0,7,228.93c6.78,6.49,18.64,9,29.61,7.15,2.72,30.1,9.57,52.87,15.15,64s15.37,21.49,16.06,22.22a37.83,37.83,0,0,0,6.43,5.55c7.45,5,15.51,6.62,22.5,7.93a118.43,118.43,0,0,0,30,1.67q-1.47,15.94-1.48,32.47c0,129,69,235.39,158,250.3a12.9,12.9,0,0,0-2.54,7.7v59.69a12.79,12.79,0,0,0,12.71,12.87H300a12.79,12.79,0,0,0,12.71-12.87V627.94a12.94,12.94,0,0,0-1.51-6.08c3-.14,5.91-.39,8.83-.74a13.16,13.16,0,0,0-.52,3.63v59.67a12.79,12.79,0,0,0,12.71,12.86h6.61a12.79,12.79,0,0,0,12.71-12.86V624.75a12.9,12.9,0,0,0-4.47-9.79c68.77-23.39,122.08-102.42,134.39-201.27a35.67,35.67,0,0,0,22.1,3.11C517.86,414,528.1,404,533.92,393.52c3.39-6.12,1.26,30.83,15.81,36.1,5.93,2.15,13.53-.4,19.66-3.37,0,0,2.76-2.94,3-5.59.21-2-1-3.17-2.17-5.05-2.35-3.69-.76-6.37-3.26-10.09A62.5,62.5,0,0,1,558.34,386c6.36,11,16.43,23.94,32,23.18a11.12,11.12,0,0,0,5.24-1.32,8.09,8.09,0,0,0,3-3.86A22.09,22.09,0,0,0,593.91,379.21Zm-55.85-17.64c-3.47,12.63-5.7,19.92-13.54,23.89-11.65,5.89-27.47,1.54-40.92,4.08q.54-9.69.54-19.6a342.93,342.93,0,0,0-12.37-92.15l3.21,6c6.71.08,17.81,1,28.42,6.14a57.43,57.43,0,0,1,7.71,4.48c5.2,3.68,8.82,7.79,12.45,11.91,11.4,12.95,14.45,25.18,15.2,28.59A55.28,55.28,0,0,1,538.06,361.57Z"/>
          <path class="cls-5" d="M593.91,379.21c-6.87-6.88-18.9-9.53-30-7.58-2.76-31.9-9.7-56-15.35-67.84S533,281,532.25,280.25a38.3,38.3,0,0,0-6.52-5.89c-8.64-6.09-22.8-8.4-22.8-8.4a262.44,262.44,0,0,0-35.72-3c-14.22-42.59-36.68-78.67-64.49-104.2,22.37-4.44,52.6-37.15,52.91-65.41.76-52.51-86.31-95-88.13-92.78-.88,1.1,16.32,15.91,39.51,46.9C421.47,66,423.85,75.4,421.32,96.22c-1.42,14.31-2.12,21.47-7.23,28-3,4.37-17.21,15.25-21.07,26.21-26.08-20.76-56.22-32.62-88.34-32.62-33.93,0-65.66,13.23-92.73,36.22-5.28-10.64-23.2-18.71-27.3-22.5-6.45-5.26-8.71-12.09-13.22-25.74-7-19.73-6.76-29.45,3.36-50.72,16-35.41,29.58-53.69,28.47-54.56C201-1.24,125,59.64,137.17,110.69c6.41,27.16,42.36,52,65.31,52C165.3,199,138.33,254.44,128.9,318.91c-7,.31-20,0-32.62-5.72-9.67-4.37-14.76-9.9-19.89-15.47-11.24-12.22-14.25-23.76-15-27a50,50,0,0,1,.69-25.17c3.42-11.91,5.63-18.8,13.36-22.54,12.53-6.07,30-.63,43.9-4.68a15.54,15.54,0,0,0,5.89-2.89,8.38,8.38,0,0,0,2.83-6.7c-.29-10.79-17.8-17.95-31.93-15.31s-24.22,12.05-30,22c-3.35,5.77-1.25-29.1-15.6-34.07-5.85-2-13.34.38-19.39,3.18,0,0-2.72,2.77-3,5.28-.21,1.84,1,3,2.14,4.76,2.31,3.48.75,6,3.22,9.52a58,58,0,0,1,8.53,18.43c-6.26-10.41-16.2-22.59-31.57-21.87a11.47,11.47,0,0,0-5.17,1.25,7.61,7.61,0,0,0-2.94,3.64A20.18,20.18,0,0,0,7,228.93c6.78,6.49,18.64,9,29.61,7.15,2.72,30.1,9.57,52.87,15.15,64s15.37,21.49,16.06,22.22a37.83,37.83,0,0,0,6.43,5.55c7.45,5,15.51,6.62,22.5,7.93a118.43,118.43,0,0,0,30,1.67q-1.47,15.94-1.48,32.47c0,129,69,235.39,158,250.3a12.9,12.9,0,0,0-2.54,7.7v59.69a12.79,12.79,0,0,0,12.71,12.87H300a12.79,12.79,0,0,0,12.71-12.87V627.94a12.94,12.94,0,0,0-1.51-6.08c3-.14,5.91-.39,8.83-.74a13.16,13.16,0,0,0-.52,3.63v59.67a12.79,12.79,0,0,0,12.71,12.86h6.61a12.79,12.79,0,0,0,12.71-12.86V624.75a12.9,12.9,0,0,0-4.47-9.79c68.77-23.39,122.08-102.42,134.39-201.27a35.67,35.67,0,0,0,22.1,3.11C517.86,414,528.1,404,533.92,393.52c3.39-6.12,1.26,30.83,15.81,36.1,5.93,2.15,13.53-.4,19.66-3.37,0,0,2.76-2.94,3-5.59.21-2-1-3.17-2.17-5.05-2.35-3.69-.76-6.37-3.26-10.09A62.5,62.5,0,0,1,558.34,386c6.36,11,16.43,23.94,32,23.18a11.12,11.12,0,0,0,5.24-1.32,8.09,8.09,0,0,0,3-3.86A22.09,22.09,0,0,0,593.91,379.21Zm-55.85-17.64c-3.47,12.63-5.7,19.92-13.54,23.89-11.65,5.89-27.47,1.54-40.92,4.08q.54-9.69.54-19.6a342.93,342.93,0,0,0-12.37-92.15l3.21,6c6.71.08,17.81,1,28.42,6.14a57.43,57.43,0,0,1,7.71,4.48c5.2,3.68,8.82,7.79,12.45,11.91,11.4,12.95,14.45,25.18,15.2,28.59A55.28,55.28,0,0,1,538.06,361.57Z"/>
        </g>
        <g>
          <ellipse class="cls-6" cx="300.5" cy="255.87" rx="47.76" ry="48.36"/>
          <ellipse class="cls-7" cx="300.5" cy="270.19" rx="24" ry="27.8"/>
        </g>
        <g>
          <path class="cls-8" d="M338.78,407.89c3,.5,6.38,1.19,9.12,3.79a14,14,0,0,1,3.91,7.57c9.38,44-10.42,63.13-10.42,63.13a47.36,47.36,0,0,1-26.6,13.16c-3.32.44-16.08,2.72-27-4.56-19.68-13.09-22.23-40.12-23.49-56.13-.54-6.88-1.52-11.05.78-15.17,6.48-11.61,31.31-12.86,31.34-12.86s11-.36,22.2-.41A118.74,118.74,0,0,1,338.78,407.89Z"/>
          <path class="cls-6" d="M280.12,409.62c15.25,29.54,21.93,41.78,25.09,47.19l6.27,10.72q1.77,4.71,3.52,9.41c6-15.82,11.68-32.57,17-50.25q3.09-10.28,5.8-20.28"/>
        </g>
        <path class="cls-5" d="M235.9,225.57a60.86,60.86,0,0,1,12.83-18.52c16.1-15.79,36.24-17.37,42.54-17.61"/>
        <path class="cls-9" d="M259,518.8c-.16,0-.68-.12-.72,0a11.75,11.75,0,0,0,2.75,1.21c9.36,3.29,21.24,7,33.34,10.3.2,0,.3,0,.32-.06.09-.32-4.12-1.87-6.6-2.57-7.68-2.16-10.51.6-16.17-1.12C265.86,524.68,261.69,519.26,259,518.8Z"/>
      </g>
      <g>
        <ellipse class="cls-10" cx="675.16" cy="83.26" rx="48.15" ry="44.11"/>
        <g class="cls-11">
          <g class="cls-12">
            <path class="cls-13" d="M730.39,86.23l-10.47,69.36c-10.48,69.37,0,0-39.08,18.75s-6.51-.85-100.48-90.34,0,0,71.4-48.71c21.33-14.55-10.2,47.42,11.51,61.48S715,106.12,730.39,86.23Z"/>
            <path class="cls-5" d="M730.39,86.23l-10.47,69.36c-10.48,69.37,0,0-39.08,18.75s-6.51-.85-100.48-90.34,0,0,71.4-48.71c21.33-14.55-10.2,47.42,11.51,61.48S715,106.12,730.39,86.23Z"/>
          </g>
        </g>
        <ellipse class="cls-5" cx="675.16" cy="83.26" rx="48.15" ry="44.11"/>
      </g>
    </g>
  </g>
</svg>
