<svg id="background" xmlns="http://www.w3.org/2000/svg" width="135" height="135" viewBox="0 0 135 135">
  <defs>
    <style>
      .cls-1 {
        fill: #e61e25;
      }
    </style>
  </defs>
  <g>
    <path class="cls-1" d="M10.54,55.85h6.83l0,21.32H15.81l-.52-2.72C14,76.71,12.53,77.84,11,77.83q-3.67,0-5.71-5.25t-2-14.8q0-9.28,2.18-15C6.94,38.93,8.83,37,11.15,37q4.59,0,5.57,11.17l-2.26,2.46v-1l0-2.14c-.15-4.64-1-7-2.7-7q-1.83,0-2.5,3.7a92.4,92.4,0,0,0-.69,13.79,98.67,98.67,0,0,0,.53,12.82c.35,2.26,1,3.39,2,3.39q1.79,0,1.79-4.74l0-9.72h-2.4Z"/>
    <path class="cls-1" d="M27.29,37.71,31.85,77.2H27l-1-8.56h-5L20,77.18H18.1l5-39.48ZM21.53,64.66H25.6L23.67,47.16Z"/>
    <path class="cls-1" d="M48.61,37.74l0,39.48H43.92l0-27.48L40.68,77.21H38l-3.28-27,0,27H33.07l0-39.48H38l2.81,23.84,2.86-23.83Z"/>
    <path class="cls-1" d="M62.22,37.76v4H56.27l0,11.95h5v4h-5l0,15.65h6.94v4l-11.76,0,.06-39.49Z"/>
    <path class="cls-1" d="M79,37.09q7.25,0,7.21,20.43t-7.4,20.41q-7.38,0-7.35-20.89Q71.46,37.07,79,37.09Zm-.14,3.15c-.9,0-1.52,1.19-1.84,3.57a123.42,123.42,0,0,0-.5,13.7A124.21,124.21,0,0,0,77,71.21q.47,3.57,1.83,3.57c.91,0,1.52-1.19,1.85-3.57a126,126,0,0,0,.5-13.7,126.8,126.8,0,0,0-.46-13.68C80.35,41.44,79.74,40.24,78.83,40.24Z"/>
    <path class="cls-1" d="M100.29,37.82,95.42,77.29H91.11L86.77,37.8h4.86l3.23,29.92,3.63-29.91Z"/>
    <path class="cls-1" d="M112.29,37.83v4h-5.94V53.73h5v4h-5l0,15.65h7v4l-11.76,0,.06-39.48Z"/>
    <path class="cls-1" d="M114.75,77.32l.06-39.48h7.13a5,5,0,0,1,4.44,2.79A14.58,14.58,0,0,1,128,48.12q0,7.18-3.58,9.34A7.46,7.46,0,0,1,126.82,61a39.2,39.2,0,0,1,.72,7.53c.15,4.43.45,7.36.92,8.79h-5.22a39.68,39.68,0,0,1-.49-6.85l0-2.35,0-2.95c0-4.55-.76-6.82-2.3-6.83h-.82l0,19Zm4.84-22.24h1c1.82,0,2.74-2.26,2.75-6.79s-.91-6.8-2.73-6.8h-1Z"/>
  </g>
</svg>
