<svg xmlns="http://www.w3.org/2000/svg" xmlns:xlink="http://www.w3.org/1999/xlink" width="412" height="152" viewBox="0 0 412 152">
  <defs>
    <style>
      .cls-1 {
        stroke: #231f20;
        stroke-miterlimit: 10;
        fill: url(#linear-gradient);
      }
    </style>
    <linearGradient id="linear-gradient" x1="0.5" y1="76" x2="405.97" y2="76" gradientUnits="userSpaceOnUse">
      <stop offset="0" stop-color="#f7931e"/>
      <stop offset="0.27" stop-color="#f46b20"/>
      <stop offset="0.59" stop-color="#f04022"/>
      <stop offset="0.85" stop-color="#ee2624"/>
      <stop offset="1" stop-color="#ed1c24"/>
    </linearGradient>
  </defs>
  <g id="Layer_6" data-name="Layer 6">
    <rect class="cls-1" x="0.5" y="0.5" width="411" height="151" rx="57.7"/>
    <g>
      <path d="M75.3,103.9l.2-44.8H101c14.5.1,21.8,4.5,21.7,13.3s-8.1,13.2-24.2,13.2H92.6v18.3ZM92.6,81.4h3.9c6.2,0,9.3-3.2,9.4-9.4s-3.1-8.8-9.4-8.8H92.6Z"/>
      <path d="M155.5,59.3l16.3,44.8H154.6l-3.5-9.7H133.2l-3.8,9.7h-6.7l17.7-44.7ZM134.9,89.8h14.6l-7-19.9Z"/>
      <path d="M221.1,59.5v30c-.1,10.3-7.6,15.5-22.7,15.4s-22.5-5.2-22.5-15.5V59.3h17.2V89.9c0,3.9.7,6.6,2.2,8s4.3,2.2,8.3,2.2c7.8,0,11.7-3.5,11.7-10.6v-30Z"/>
      <path d="M269.1,72.1l-7.9,1.1a13.3,13.3,0,0,0,.5-3c0-5.2-4.2-7.8-12.5-7.8-6.6-.1-9.9,1.7-9.9,5.3s3.6,5,11,7c14.2,3.7,21.3,9.2,21.3,16.4,0,4.3-2,7.7-6,10.3s-9.3,3.8-15.9,3.8c-14.7-.1-22-4.4-22-13,0-.7.1-1.6.2-2.6l8.3-1.3a17,17,0,0,0-1,4.9q0,8.4,12.6,8.4,10.2,0,10.2-6c0-3-4-5.6-12.1-7.9-11.7-3.2-17.5-8.4-17.5-15.5,0-4.1,2-7.3,5.9-9.8s9-3.6,15.4-3.6C262.7,58.8,269.2,63.3,269.1,72.1Z"/>
      <path d="M317.6,59.7v4.5H296.4V77.7h17.9v4.5H296.3V100h24.8v4.5h-42V59.6Z"/>
    </g>
  </g>
</svg>
