<svg xmlns="http://www.w3.org/2000/svg" xmlns:xlink="http://www.w3.org/1999/xlink" width="543" height="168" viewBox="0 0 543 168">
  <defs>
    <style>
      .cls-1 {
        stroke: #231f20;
        stroke-miterlimit: 10;
        fill: url(#linear-gradient);
      }
    </style>
    <linearGradient id="linear-gradient" x1="0.5" y1="84" x2="535.21" y2="84" gradientUnits="userSpaceOnUse">
      <stop offset="0" stop-color="#f7931e"/>
      <stop offset="0.27" stop-color="#f46b20"/>
      <stop offset="0.59" stop-color="#f04022"/>
      <stop offset="0.85" stop-color="#ee2624"/>
      <stop offset="1" stop-color="#ed1c24"/>
    </linearGradient>
  </defs>
  <g id="Layer_6" data-name="Layer 6">
    <g>
      <rect class="cls-1" x="0.5" y="0.5" width="542" height="167" rx="57.7"/>
      <g>
        <path d="M121,64.2v4.5H106.5V109H88.2V68.6H73.6V64.1Z"/>
        <path d="M125.4,109V64.2H151c6.6,0,11.9,1.1,15.9,3.2s5.9,4.9,5.9,8.5c0,5.4-4.3,8.9-12.8,10.5,4.4,1.3,7.2,2.6,8.5,4.1s2.1,4.3,2.6,8.5,1.6,8.4,3.3,10H155.7a16.7,16.7,0,0,1-1.7-7.8v-6c0-5.2-2.7-7.8-8.2-7.8h-3V109Zm17.3-25.2h3.4c6.5,0,9.8-2.5,9.8-7.7s-3.2-7.7-9.7-7.7h-3.5Z"/>
        <path d="M223.1,64.5,208.6,92.7v16.5H191.3V92.6L175.5,64.3h17.8l12,21.6,10.9-21.6Z"/>
        <path d="M280.6,64.6l16.3,44.9H279.7l-3.5-9.7H258.3l-3.8,9.7h-6.7l17.7-44.7ZM260,95.2h14.6l-7-19.9Z"/>
        <path d="M324.8,85.3h24.4v24.2h-5.5l-1.9-3.1a32.2,32.2,0,0,1-15.1,3.8q-13.2,0-20.4-6c-4.9-4-7.3-9.6-7.3-16.8s2.6-12.7,7.8-17.1S318.7,64,327,64c10.9,0,17.5,4.3,19.9,12.7l-8.1,2.8V76c-.5-5.3-3.8-8-9.7-8-4.3,0-7.3,1.4-8.9,4.2s-2.4,8-2.4,15.7.6,11.9,1.9,14.5,3.7,3.9,7.3,3.9,6.4-1.8,6.4-5.4v-11h-8.6Z"/>
        <path d="M384.6,64.9,401,109.7H383.7l-3.4-9.7H362.4l-3.8,9.7h-6.7l17.6-44.7ZM364.1,95.4h14.6l-7-19.9Z"/>
        <path d="M423,65v44.8H405.7V65Z"/>
        <path d="M476.6,65.1v44.8H463.3L438.7,81.5v28.3h-5.8L433,65h10.8l27,30.6V65.1Z"/>
      </g>
    </g>
  </g>
</svg>
