<svg id="background" xmlns="http://www.w3.org/2000/svg" width="135" height="135" viewBox="0 0 135 135">
  <defs>
    <style>
      .cls-1 {
        fill: #fdda45;
      }

      .cls-2 {
        fill: #fbb337;
      }

      .cls-2, .cls-4 {
        stroke: #231f20;
        stroke-miterlimit: 10;
      }

      .cls-3, .cls-4 {
        fill: #231f20;
      }

      .cls-4 {
        stroke-width: 6px;
      }
    </style>
  </defs>
  <g>
    <path class="cls-1" d="M128,69c0,32.31-26.42,58.5-59,58.5a59.23,59.23,0,0,1-21.71-4.09l-.32-.12A59.27,59.27,0,0,1,25.5,108.52a58.44,58.44,0,0,1-6-7.66A58,58,0,0,1,10,69c0-32.31,26.41-58.5,59-58.5h1.42A59.49,59.49,0,0,1,89.1,14h0A59,59,0,0,1,98,18l.26.14a59.18,59.18,0,0,1,19.09,17.27l.17.25A57.88,57.88,0,0,1,128,69Z"/>
    <path class="cls-2" d="M119.75,69.69c0,29.13-23.41,52.75-52.3,52.75a51.67,51.67,0,0,1-19.23-3.69l-.29-.11A52.84,52.84,0,0,1,15.16,69.69c0-29.13,23.41-52.75,52.29-52.75l1.26,0a51.61,51.61,0,0,1,16.56,3.12h0a51.22,51.22,0,0,1,7.87,3.66l.23.13A52.83,52.83,0,0,1,110.3,39.44l.15.22A52.82,52.82,0,0,1,119.75,69.69Z"/>
    <path class="cls-1" d="M119.75,69c0,26.77-20.75,48.47-46.33,48.47S27.09,95.77,27.09,69,47.83,20.53,73.42,20.53,119.75,42.23,119.75,69Z"/>
    <path class="cls-3" d="M67,49.67c9.61,0,14.55,2.78,14.55,7.63v1H72.17V57c0-2.17-1.8-3-4.94-3s-4.94.82-4.94,3,2,3.86,8.44,6.59c8.26,3.51,10.87,6,10.87,9.49,0,4.86-5,7.63-14.73,7.63s-14.73-2.77-14.73-7.63V71.22h9.34v2.17c0,2.16,2,2.94,5.12,2.94s5.12-.78,5.12-2.94-2-3.86-8.44-6.59c-8.26-3.51-10.87-6-10.87-9.5C52.41,52.45,57.35,49.67,67,49.67Z"/>
    <line class="cls-4" x1="69" y1="44.35" x2="69" y2="83.77"/>
  </g>
</svg>
