<svg xmlns="http://www.w3.org/2000/svg" xmlns:xlink="http://www.w3.org/1999/xlink" width="1920" height="1080" viewBox="0 0 1920 1080">
  <defs>
    <style>
      .cls-1, .cls-10, .cls-11, .cls-12, .cls-13, .cls-14, .cls-5 {
        stroke-miterlimit: 10;
      }

      .cls-1 {
        fill: url(#radial-gradient);
        stroke: url(#radial-gradient-2);
      }

      .cls-2 {
        fill: url(#radial-gradient-3);
      }

      .cls-3 {
        mix-blend-mode: color-dodge;
        fill: url(#radial-gradient-4);
      }

      .cls-4 {
        isolation: isolate;
      }

      .cls-11, .cls-5 {
        fill: #fff;
      }

      .cls-5 {
        stroke: #000;
      }

      .cls-6 {
        fill: url(#radial-gradient-5);
      }

      .cls-7 {
        mix-blend-mode: overlay;
      }

      .cls-8 {
        filter: url(#AI_BevelShadow_1);
      }

      .cls-9 {
        fill: #ec1c24;
      }

      .cls-10 {
        fill: none;
      }

      .cls-10, .cls-11, .cls-12, .cls-13, .cls-14 {
        stroke: #231f20;
      }

      .cls-12 {
        fill: #231f20;
      }

      .cls-13 {
        fill: url(#radial-gradient-6);
      }

      .cls-14 {
        fill: #404041;
      }

      .cls-15, .cls-16 {
        opacity: 0.75;
      }

      .cls-15 {
        mix-blend-mode: multiply;
      }

      .cls-16 {
        mix-blend-mode: screen;
      }

      .cls-17 {
        fill: url(#linear-gradient);
      }
    </style>
    <radialGradient id="radial-gradient" cx="43.5" cy="43.5" r="43" gradientUnits="userSpaceOnUse">
      <stop offset="0" stop-color="#fff"/>
      <stop offset="0.17" stop-opacity="0"/>
    </radialGradient>
    <radialGradient id="radial-gradient-2" cx="43.5" cy="43.5" r="43.5" gradientUnits="userSpaceOnUse">
      <stop offset="0" stop-color="#fff"/>
      <stop offset="0.13" stop-opacity="0"/>
    </radialGradient>
    <radialGradient id="radial-gradient-3" cx="107.5" cy="107.5" r="107.5" gradientUnits="userSpaceOnUse">
      <stop offset="0" stop-color="#fff"/>
      <stop offset="0.11" stop-color="#fff" stop-opacity="0.86"/>
      <stop offset="0.36" stop-color="#fff" stop-opacity="0.56"/>
      <stop offset="0.58" stop-color="#fff" stop-opacity="0.32"/>
      <stop offset="0.77" stop-color="#fff" stop-opacity="0.15"/>
      <stop offset="0.91" stop-color="#fff" stop-opacity="0.04"/>
      <stop offset="1" stop-color="#fff" stop-opacity="0"/>
    </radialGradient>
    <radialGradient id="radial-gradient-4" cx="76.5" cy="76.5" r="76.5" gradientUnits="userSpaceOnUse">
      <stop offset="0" stop-color="#fff"/>
      <stop offset="0.02" stop-color="#e8e8e8"/>
      <stop offset="0.07" stop-color="#b8b8b8"/>
      <stop offset="0.12" stop-color="#8c8c8c"/>
      <stop offset="0.17" stop-color="#666"/>
      <stop offset="0.22" stop-color="#464646"/>
      <stop offset="0.29" stop-color="#2d2d2d"/>
      <stop offset="0.35" stop-color="#191919"/>
      <stop offset="0.43" stop-color="#0b0b0b"/>
      <stop offset="0.52" stop-color="#020202"/>
      <stop offset="0.68"/>
    </radialGradient>
    <radialGradient id="radial-gradient-5" cx="983.64" cy="1047.22" r="752.87" gradientTransform="translate(-42.05 -76.22) scale(1.02 1.07)" gradientUnits="userSpaceOnUse">
      <stop offset="0" stop-color="#c80d5c"/>
      <stop offset="0" stop-color="#d4145a"/>
      <stop offset="0.11" stop-color="#cb145b"/>
      <stop offset="0.29" stop-color="#b1145c"/>
      <stop offset="0.52" stop-color="#87145e"/>
      <stop offset="0.78" stop-color="#4e1461"/>
      <stop offset="1" stop-color="#1b1464"/>
    </radialGradient>
    <filter id="AI_BevelShadow_1" x="-20%" y="-20%" width="140%" height="140%" name="AI_BevelShadow_1">
      <feGaussianBlur result="blur" stdDeviation="4" in="SourceAlpha"/>
      <feOffset result="offsetBlur" dx="4" dy="4" in="blur"/>
      <feSpecularLighting result="specOut" surfaceScale="5" specularExponent="10" in="blur">
        <fePointLight x="-5000" y="-10000" z="-20000"/>
      </feSpecularLighting>
      <feComposite result="specOut" operator="in" in="specOut" in2="SourceAlpha"/>
      <feComposite result="litPaint" operator="arithmetic" k2="1" k3="1" in="SourceGraphic" in2="specOut"/>
      <feMerge>
        <feMergeNode in="offsetBlur"/>
        <feMergeNode in="litPaint"/>
      </feMerge>
    </filter>
    <radialGradient id="radial-gradient-6" cx="-3908.59" cy="-943.97" r="55.86" gradientTransform="translate(1667.13 402.33) scale(0.15 0.15)" gradientUnits="userSpaceOnUse">
      <stop offset="0" stop-color="#404041"/>
      <stop offset="1" stop-color="#231f20"/>
    </radialGradient>
    <linearGradient id="linear-gradient" x1="491.23" y1="472.24" x2="1489.13" y2="472.24" gradientTransform="translate(17.5 -31.53) rotate(1.79)" gradientUnits="userSpaceOnUse">
      <stop offset="0" stop-color="#f7931e"/>
      <stop offset="0.27" stop-color="#f46b20"/>
      <stop offset="0.59" stop-color="#f04022"/>
      <stop offset="0.85" stop-color="#ee2624"/>
      <stop offset="1" stop-color="#ed1c24"/>
    </linearGradient>
    <symbol id="New_Symbol" data-name="New Symbol" viewBox="0 0 87 87">
      <circle class="cls-1" cx="43.5" cy="43.5" r="43"/>
    </symbol>
    <symbol id="New_Symbol_1" data-name="New Symbol 1" viewBox="0 0 215 215">
      <circle class="cls-2" cx="107.5" cy="107.5" r="107.5"/>
    </symbol>
    <symbol id="New_Symbol_2" data-name="New Symbol 2" viewBox="0 0 153 153">
      <circle class="cls-3" cx="76.5" cy="76.5" r="76.5"/>
    </symbol>
  </defs>
  <g class="cls-4">
    <g id="Layer_6" data-name="Layer 6">
      <g>
        <rect class="cls-5" x="-12.56" y="1.3" width="1949.8" height="1082.07"/>
        <rect class="cls-6" x="-11.04" y="0.8" width="1949.8" height="1082.07"/>
      </g>
      <g>
        <use width="87" height="87" transform="translate(753.47 455.16) scale(1.02 1)" xlink:href="#New_Symbol"/>
        <use width="87" height="87" transform="translate(752.92 418.33) scale(1.02 1)" xlink:href="#New_Symbol"/>
        <use width="87" height="87" transform="translate(910.86 504.29) scale(1.02 1)" xlink:href="#New_Symbol"/>
        <use width="87" height="87" transform="translate(926 541.5) scale(1.02 1)" xlink:href="#New_Symbol"/>
        <use width="87" height="87" transform="translate(1023.18 538.65) scale(1.02 1)" xlink:href="#New_Symbol"/>
        <use width="87" height="87" transform="translate(1007.19 506.18) scale(1.02 1)" xlink:href="#New_Symbol"/>
        <use width="87" height="87" transform="translate(1112.39 505.45) scale(1.02 1)" xlink:href="#New_Symbol"/>
        <use width="87" height="87" transform="translate(1098.61 468.03) scale(1.02 1)" xlink:href="#New_Symbol"/>
        <use width="87" height="87" transform="translate(1078.13 510.43) scale(1.02 1)" xlink:href="#New_Symbol"/>
        <use width="87" height="87" transform="translate(851.62 543.72) scale(1.02 1)" xlink:href="#New_Symbol"/>
        <use width="87" height="87" transform="translate(652.89 582.69) scale(1.02 1)" xlink:href="#New_Symbol"/>
        <use width="87" height="87" transform="translate(492.58 563.68) scale(1.02 1)" xlink:href="#New_Symbol"/>
        <use width="87" height="87" transform="translate(447.82 547.94) scale(1.02 1)" xlink:href="#New_Symbol"/>
        <use width="87" height="87" transform="translate(536.95 455.61) scale(1.02 1)" xlink:href="#New_Symbol"/>
        <use width="87" height="87" transform="translate(633.57 380.31) scale(1.02 1)" xlink:href="#New_Symbol"/>
        <use width="87" height="87" transform="translate(872.65 415.62) scale(1.02 1)" xlink:href="#New_Symbol"/>
        <use width="87" height="87" transform="translate(979.81 451.17) scale(1.02 1)" xlink:href="#New_Symbol"/>
        <use width="87" height="87" transform="translate(1038.9 336.02) scale(1.02 1)" xlink:href="#New_Symbol"/>
        <use width="87" height="87" transform="translate(719.2 203.84) scale(1.02 1)" xlink:href="#New_Symbol"/>
        <use width="87" height="87" transform="translate(542.05 156.67) scale(1.02 1)" xlink:href="#New_Symbol"/>
        <use width="87" height="87" transform="translate(370.32 165.52) scale(1.02 1)" xlink:href="#New_Symbol"/>
        <use width="87" height="87" transform="translate(204.08 179.85) scale(1.02 1)" xlink:href="#New_Symbol"/>
        <use width="87" height="87" transform="translate(140.38 188.81) scale(1.02 1)" xlink:href="#New_Symbol"/>
        <use width="87" height="87" transform="translate(123 229.29) scale(1.02 1)" xlink:href="#New_Symbol"/>
        <use width="87" height="87" transform="translate(270.57 382.35) scale(1.02 1)" xlink:href="#New_Symbol"/>
        <use width="87" height="87" transform="translate(560.16 485.85) scale(1.02 1)" xlink:href="#New_Symbol"/>
        <use width="87" height="87" transform="translate(522.03 628.71) scale(1.02 1)" xlink:href="#New_Symbol"/>
        <use width="87" height="87" transform="translate(321.66 641.73) scale(1.02 1)" xlink:href="#New_Symbol"/>
        <use width="87" height="87" transform="translate(97.73 562.84) scale(1.02 1)" xlink:href="#New_Symbol"/>
        <use width="87" height="87" transform="translate(93.68 422.49) scale(1.02 1)" xlink:href="#New_Symbol"/>
        <use width="87" height="87" transform="translate(296.36 342.6) scale(1.02 1)" xlink:href="#New_Symbol"/>
        <use width="87" height="87" transform="translate(489.68 363.63) scale(1.02 1)" xlink:href="#New_Symbol"/>
        <use width="87" height="87" transform="translate(430.39 453.56) scale(1.02 1)" xlink:href="#New_Symbol"/>
        <use width="87" height="87" transform="translate(137.82 518.31) scale(1.02 1)" xlink:href="#New_Symbol"/>
        <use width="87" height="87" transform="translate(45.67 527.34) scale(1.02 1)" xlink:href="#New_Symbol"/>
        <use width="87" height="87" transform="translate(219.66 337.37) scale(1.02 1)" xlink:href="#New_Symbol"/>
        <use width="87" height="87" transform="translate(668.95 275.34) scale(1.02 1)" xlink:href="#New_Symbol"/>
        <use width="87" height="87" transform="translate(926.63 271.36) scale(1.02 1)" xlink:href="#New_Symbol"/>
        <use width="87" height="87" transform="translate(1139.58 292.03) scale(1.02 1)" xlink:href="#New_Symbol"/>
        <use width="87" height="87" transform="translate(1311.21 308.99) scale(1.02 1)" xlink:href="#New_Symbol"/>
        <use width="87" height="87" transform="translate(1456.85 323.34) scale(1.02 1)" xlink:href="#New_Symbol"/>
        <use width="87" height="87" transform="translate(1569.16 341.48) scale(1.02 1)" xlink:href="#New_Symbol"/>
        <use width="87" height="87" transform="translate(1732.17 352.09) scale(1.02 1)" xlink:href="#New_Symbol"/>
        <use width="87" height="87" transform="translate(1631.8 255.97) scale(1.02 1)" xlink:href="#New_Symbol"/>
        <use width="87" height="87" transform="translate(1420.69 149.68) scale(1.02 1)" xlink:href="#New_Symbol"/>
        <use width="87" height="87" transform="translate(1222.41 92.75) scale(1.02 1)" xlink:href="#New_Symbol"/>
        <use width="87" height="87" transform="translate(1004.19 6.37) scale(1.02 1)" xlink:href="#New_Symbol"/>
        <use width="87" height="87" transform="translate(795.47 -5.93) scale(1.02 1)" xlink:href="#New_Symbol"/>
        <use width="87" height="87" transform="translate(615.18 14.61) scale(1.02 1)" xlink:href="#New_Symbol"/>
        <use width="87" height="87" transform="translate(518.61 17.13) scale(1.02 1)" xlink:href="#New_Symbol"/>
        <use width="87" height="87" transform="translate(340.21 3.46) scale(1.02 1)" xlink:href="#New_Symbol"/>
        <use width="87" height="87" transform="translate(274.22 9.34) scale(1.02 1)" xlink:href="#New_Symbol"/>
        <use width="87" height="87" transform="translate(221.4 1.82) scale(1.02 1)" xlink:href="#New_Symbol"/>
        <use width="87" height="87" transform="translate(168.11 9.69) scale(1.02 1)" xlink:href="#New_Symbol"/>
        <use width="87" height="87" transform="translate(123.59 24.53) scale(1.02 1)" xlink:href="#New_Symbol"/>
        <use width="87" height="87" transform="translate(81.14 2.31) scale(1.02 1)" xlink:href="#New_Symbol"/>
        <use width="87" height="87" transform="translate(73.09 50.05) scale(1.02 1)" xlink:href="#New_Symbol"/>
        <use width="87" height="87" transform="translate(176.47 61.89) scale(1.02 1)" xlink:href="#New_Symbol"/>
        <use width="87" height="87" transform="translate(394.22 -11.85) scale(1.02 1)" xlink:href="#New_Symbol"/>
        <use width="87" height="87" transform="translate(523.83 -36.84) scale(1.02 1)" xlink:href="#New_Symbol"/>
        <use width="87" height="87" transform="translate(662.79 -48.59) scale(1.02 1)" xlink:href="#New_Symbol"/>
        <use width="87" height="87" transform="translate(778.78 -60) scale(1.02 1)" xlink:href="#New_Symbol"/>
        <use width="87" height="87" transform="translate(922.49 -44.41) scale(1.02 1)" xlink:href="#New_Symbol"/>
        <use width="87" height="87" transform="translate(1057.7 -32.19) scale(1.02 1)" xlink:href="#New_Symbol"/>
        <use width="87" height="87" transform="translate(1206.59 -25.64) scale(1.02 1)" xlink:href="#New_Symbol"/>
        <use width="87" height="87" transform="translate(1373.53 -23.05) scale(1.02 1)" xlink:href="#New_Symbol"/>
        <use width="87" height="87" transform="translate(1538.43 4.88) scale(1.02 1)" xlink:href="#New_Symbol"/>
        <use width="87" height="87" transform="translate(1669.1 34.55) scale(1.02 1)" xlink:href="#New_Symbol"/>
        <use width="87" height="87" transform="translate(1728.93 46.88) scale(1.02 1)" xlink:href="#New_Symbol"/>
        <use width="87" height="87" transform="translate(1765.97 42.6) scale(1.02 1)" xlink:href="#New_Symbol"/>
        <use width="87" height="87" transform="translate(1815.79 154.6) scale(1.02 1)" xlink:href="#New_Symbol"/>
        <use width="87" height="87" transform="translate(1813.01 302.81) scale(1.02 1)" xlink:href="#New_Symbol"/>
        <use width="87" height="87" transform="translate(1828.44 536.38) scale(1.02 1)" xlink:href="#New_Symbol"/>
        <use width="87" height="87" transform="translate(1843.87 594.87) scale(1.02 1)" xlink:href="#New_Symbol"/>
        <use width="87" height="87" transform="translate(1819.01 645.48) scale(1.02 1)" xlink:href="#New_Symbol"/>
        <use width="87" height="87" transform="translate(1777.93 700.11) scale(1.02 1)" xlink:href="#New_Symbol"/>
        <use width="87" height="87" transform="translate(1843.26 725.12) scale(1.02 1)" xlink:href="#New_Symbol"/>
        <use width="87" height="87" transform="translate(1827.55 778.86) scale(1.02 1)" xlink:href="#New_Symbol"/>
        <use width="87" height="87" transform="translate(1606.48 842.3) scale(1.02 1)" xlink:href="#New_Symbol"/>
        <use width="87" height="87" transform="translate(1258.08 819.01) scale(1.02 1)" xlink:href="#New_Symbol"/>
        <use width="87" height="87" transform="translate(1087.67 838.41) scale(1.02 1)" xlink:href="#New_Symbol"/>
        <use width="87" height="87" transform="translate(845.38 874.62) scale(1.02 1)" xlink:href="#New_Symbol"/>
        <use width="87" height="87" transform="translate(598.08 953.14) scale(1.02 1)" xlink:href="#New_Symbol"/>
        <use width="87" height="87" transform="translate(369.97 963.9) scale(1.02 1)" xlink:href="#New_Symbol"/>
        <use width="87" height="87" transform="translate(227.44 964.75) scale(1.02 1)" xlink:href="#New_Symbol"/>
        <use width="87" height="87" transform="translate(85.26 914.18) scale(1.02 1)" xlink:href="#New_Symbol"/>
        <use width="87" height="87" transform="translate(80.31 872.48) scale(1.02 1)" xlink:href="#New_Symbol"/>
        <use width="87" height="87" transform="translate(486.43 897.86) scale(1.02 1)" xlink:href="#New_Symbol"/>
        <use width="87" height="87" transform="translate(568.32 882.45) scale(1.02 1)" xlink:href="#New_Symbol"/>
        <use width="87" height="87" transform="translate(854.9 794.57) scale(1.02 1)" xlink:href="#New_Symbol"/>
        <use width="87" height="87" transform="translate(903.87 791.38) scale(1.02 1)" xlink:href="#New_Symbol"/>
        <use width="87" height="87" transform="translate(552.09 779.1) scale(1.02 1)" xlink:href="#New_Symbol"/>
        <use width="87" height="87" transform="translate(333.17 761.85) scale(1.02 1)" xlink:href="#New_Symbol"/>
        <use width="87" height="87" transform="translate(545.01 706.53) scale(1.02 1)" xlink:href="#New_Symbol"/>
        <use width="87" height="87" transform="translate(713.57 674.62) scale(1.02 1)" xlink:href="#New_Symbol"/>
        <use width="87" height="87" transform="translate(749.21 688.23) scale(1.02 1)" xlink:href="#New_Symbol"/>
        <use width="87" height="87" transform="translate(732.54 751.78) scale(1.02 1)" xlink:href="#New_Symbol"/>
        <use width="87" height="87" transform="translate(720 806.71) scale(1.02 1)" xlink:href="#New_Symbol"/>
        <use width="87" height="87" transform="translate(698.2 850.47) scale(1.02 1)" xlink:href="#New_Symbol"/>
        <use width="87" height="87" transform="translate(716.04 889.29) scale(1.02 1)" xlink:href="#New_Symbol"/>
        <use width="87" height="87" transform="translate(919.89 848.82) scale(1.02 1)" xlink:href="#New_Symbol"/>
        <use width="87" height="87" transform="translate(941.81 755.6) scale(1.02 1)" xlink:href="#New_Symbol"/>
        <use width="87" height="87" transform="translate(958.7 671.99) scale(1.02 1)" xlink:href="#New_Symbol"/>
        <use width="87" height="87" transform="translate(1000.75 674.26) scale(1.02 1)" xlink:href="#New_Symbol"/>
        <use width="87" height="87" transform="translate(820.01 737.74) scale(1.02 1)" xlink:href="#New_Symbol"/>
        <use width="87" height="87" transform="translate(912.81 739.18) scale(1.02 1)" xlink:href="#New_Symbol"/>
        <use width="87" height="87" transform="translate(1183.45 756.53) scale(1.02 1)" xlink:href="#New_Symbol"/>
        <use width="87" height="87" transform="translate(1295.72 730.46) scale(1.02 1)" xlink:href="#New_Symbol"/>
        <use width="87" height="87" transform="translate(1379.77 763.03) scale(1.02 1)" xlink:href="#New_Symbol"/>
        <use width="87" height="87" transform="translate(1524.85 781.45) scale(1.02 1)" xlink:href="#New_Symbol"/>
        <use width="87" height="87" transform="translate(1639.23 709.37) scale(1.02 1)" xlink:href="#New_Symbol"/>
        <use width="87" height="87" transform="translate(1626.85 680.19) scale(1.02 1)" xlink:href="#New_Symbol"/>
        <use width="87" height="87" transform="translate(1600.46 797.43) scale(1.02 1)" xlink:href="#New_Symbol"/>
        <use width="87" height="87" transform="translate(1671.41 777.17) scale(1.02 1)" xlink:href="#New_Symbol"/>
        <use width="87" height="87" transform="translate(1653.32 633.22) scale(1.02 1)" xlink:href="#New_Symbol"/>
        <use width="87" height="87" transform="translate(1515.7 624.3) scale(1.02 1)" xlink:href="#New_Symbol"/>
        <use width="87" height="87" transform="translate(1392.43 632.82) scale(1.02 1)" xlink:href="#New_Symbol"/>
        <use width="87" height="87" transform="translate(1286.17 674.4) scale(1.02 1)" xlink:href="#New_Symbol"/>
        <use width="87" height="87" transform="translate(1223.17 697.31) scale(1.02 1)" xlink:href="#New_Symbol"/>
        <use width="87" height="87" transform="translate(1167.75 684.33) scale(1.02 1)" xlink:href="#New_Symbol"/>
        <use width="87" height="87" transform="translate(1247.98 604.07) scale(1.02 1)" xlink:href="#New_Symbol"/>
        <use width="87" height="87" transform="translate(1296.53 569.75) scale(1.02 1)" xlink:href="#New_Symbol"/>
        <use width="87" height="87" transform="translate(1374.35 560.84) scale(1.02 1)" xlink:href="#New_Symbol"/>
        <use width="87" height="87" transform="translate(1496.55 532.98) scale(1.02 1)" xlink:href="#New_Symbol"/>
        <use width="87" height="87" transform="translate(1618.33 548.25) scale(1.02 1)" xlink:href="#New_Symbol"/>
        <use width="87" height="87" transform="translate(1667.27 593.74) scale(1.02 1)" xlink:href="#New_Symbol"/>
        <use width="87" height="87" transform="translate(1694.59 663.21) scale(1.02 1)" xlink:href="#New_Symbol"/>
        <use width="87" height="87" transform="translate(1748.07 616.99) scale(1.02 1)" xlink:href="#New_Symbol"/>
        <use width="87" height="87" transform="translate(1765.17 506.97) scale(1.02 1)" xlink:href="#New_Symbol"/>
        <use width="87" height="87" transform="translate(1482.22 458.99) scale(1.02 1)" xlink:href="#New_Symbol"/>
        <use width="87" height="87" transform="translate(1400.3 490.63) scale(1.02 1)" xlink:href="#New_Symbol"/>
        <use width="87" height="87" transform="translate(1334.5 409.17) scale(1.02 1)" xlink:href="#New_Symbol"/>
        <use width="87" height="87" transform="translate(1247.44 297.46) scale(1.02 1)" xlink:href="#New_Symbol"/>
        <use width="87" height="87" transform="translate(1186.08 302.06) scale(1.02 1)" xlink:href="#New_Symbol"/>
        <use width="87" height="87" transform="translate(1078.59 228.66) scale(1.02 1)" xlink:href="#New_Symbol"/>
        <use width="87" height="87" transform="translate(1032.16 151.69) scale(1.02 1)" xlink:href="#New_Symbol"/>
        <use width="87" height="87" transform="translate(940.97 76.49) scale(1.02 1)" xlink:href="#New_Symbol"/>
        <use width="87" height="87" transform="translate(833.89 64) scale(1.02 1)" xlink:href="#New_Symbol"/>
        <use width="87" height="87" transform="translate(782.63 89.54) scale(1.02 1)" xlink:href="#New_Symbol"/>
        <use width="87" height="87" transform="translate(668.96 116.2) scale(1.02 1)" xlink:href="#New_Symbol"/>
        <use width="87" height="87" transform="translate(531.01 115.49) scale(1.02 1)" xlink:href="#New_Symbol"/>
        <use width="87" height="87" transform="translate(395.11 136.58) scale(1.02 1)" xlink:href="#New_Symbol"/>
        <use width="87" height="87" transform="translate(321.96 130.4) scale(1.02 1)" xlink:href="#New_Symbol"/>
        <use width="87" height="87" transform="translate(289.16 155.48) scale(1.02 1)" xlink:href="#New_Symbol"/>
        <use width="87" height="87" transform="translate(292.73 191.26) scale(1.02 1)" xlink:href="#New_Symbol"/>
        <use width="87" height="87" transform="translate(251.95 274.35) scale(1.02 1)" xlink:href="#New_Symbol"/>
        <use width="87" height="87" transform="translate(96.59 336.72) scale(1.02 1)" xlink:href="#New_Symbol"/>
        <use width="87" height="87" transform="translate(42.63 443.57) scale(1.02 1)" xlink:href="#New_Symbol"/>
        <use width="87" height="87" transform="translate(-3.92 527.82) scale(1.02 1)" xlink:href="#New_Symbol"/>
        <use width="87" height="87" transform="translate(10.3 561.42) scale(1.02 1)" xlink:href="#New_Symbol"/>
        <use width="87" height="87" transform="translate(-0.69 429.52) scale(1.02 1)" xlink:href="#New_Symbol"/>
        <use width="87" height="87" transform="translate(10.28 382.07) scale(1.02 1)" xlink:href="#New_Symbol"/>
        <use width="87" height="87" transform="translate(16.78 341.11) scale(1.02 1)" xlink:href="#New_Symbol"/>
        <use width="87" height="87" transform="translate(-35.29 330.45) scale(1.02 1)" xlink:href="#New_Symbol"/>
        <use width="87" height="87" transform="translate(-32.95 290.51) scale(1.02 1)" xlink:href="#New_Symbol"/>
        <use width="87" height="87" transform="translate(-23.84 237.29) scale(1.02 1)" xlink:href="#New_Symbol"/>
        <use width="87" height="87" transform="translate(-10.61 148.22) scale(1.02 1)" xlink:href="#New_Symbol"/>
        <use width="87" height="87" transform="translate(1.19 114.82) scale(1.02 1)" xlink:href="#New_Symbol"/>
        <use width="87" height="87" transform="translate(38.72 99.39) scale(1.02 1)" xlink:href="#New_Symbol"/>
        <use width="87" height="87" transform="translate(130.26 102.87) scale(1.02 1)" xlink:href="#New_Symbol"/>
        <use width="87" height="87" transform="translate(225.83 88.33) scale(1.02 1)" xlink:href="#New_Symbol"/>
        <use width="87" height="87" transform="translate(267.01 66.42) scale(1.02 1)" xlink:href="#New_Symbol"/>
        <use width="87" height="87" transform="translate(330.29 49.73) scale(1.02 1)" xlink:href="#New_Symbol"/>
        <use width="87" height="87" transform="translate(427 87.33) scale(1.02 1)" xlink:href="#New_Symbol"/>
        <use width="87" height="87" transform="translate(502.14 176.54) scale(1.02 1)" xlink:href="#New_Symbol"/>
        <use width="87" height="87" transform="translate(576.8 191.01) scale(1.02 1)" xlink:href="#New_Symbol"/>
        <use width="87" height="87" transform="translate(666.54 185.81) scale(1.02 1)" xlink:href="#New_Symbol"/>
        <use width="87" height="87" transform="translate(625.4 148.31) scale(1.02 1)" xlink:href="#New_Symbol"/>
        <use width="87" height="87" transform="translate(459.61 249.94) scale(1.02 1)" xlink:href="#New_Symbol"/>
        <use width="87" height="87" transform="translate(383.33 346.38) scale(1.02 1)" xlink:href="#New_Symbol"/>
        <use width="87" height="87" transform="translate(312.86 416.55) scale(1.02 1)" xlink:href="#New_Symbol"/>
        <use width="87" height="87" transform="translate(203.54 494.28) scale(1.02 1)" xlink:href="#New_Symbol"/>
        <use width="87" height="87" transform="translate(135.76 580.93) scale(1.02 1)" xlink:href="#New_Symbol"/>
        <use width="87" height="87" transform="translate(73.69 605.83) scale(1.02 1)" xlink:href="#New_Symbol"/>
        <use width="87" height="87" transform="translate(12.02 613.69) scale(1.02 1)" xlink:href="#New_Symbol"/>
        <use width="87" height="87" transform="translate(-26.87 624.2) scale(1.02 1)" xlink:href="#New_Symbol"/>
        <use width="87" height="87" transform="translate(-26.52 682.21) scale(1.02 1)" xlink:href="#New_Symbol"/>
        <use width="87" height="87" transform="translate(79.89 726.59) scale(1.02 1)" xlink:href="#New_Symbol"/>
        <use width="87" height="87" transform="translate(161.02 745.23) scale(1.02 1)" xlink:href="#New_Symbol"/>
        <use width="87" height="87" transform="translate(108.28 801.62) scale(1.02 1)" xlink:href="#New_Symbol"/>
        <use width="87" height="87" transform="translate(240.96 847.48) scale(1.02 1)" xlink:href="#New_Symbol"/>
        <use width="87" height="87" transform="translate(278.88 769.91) scale(1.02 1)" xlink:href="#New_Symbol"/>
        <use width="87" height="87" transform="translate(270.48 712.08) scale(1.02 1)" xlink:href="#New_Symbol"/>
        <use width="87" height="87" transform="translate(269.95 633.73) scale(1.02 1)" xlink:href="#New_Symbol"/>
        <use width="87" height="87" transform="translate(213.79 641.62) scale(1.02 1)" xlink:href="#New_Symbol"/>
        <use width="87" height="87" transform="translate(313.31 680.34) scale(1.02 1)" xlink:href="#New_Symbol"/>
        <use width="87" height="87" transform="translate(347.08 682.19) scale(1.02 1)" xlink:href="#New_Symbol"/>
        <use width="87" height="87" transform="translate(435.67 848.31) scale(1.02 1)" xlink:href="#New_Symbol"/>
        <use width="87" height="87" transform="translate(605.46 886.32) scale(1.02 1)" xlink:href="#New_Symbol"/>
        <use width="87" height="87" transform="translate(646 911.55) scale(1.02 1)" xlink:href="#New_Symbol"/>
        <use width="87" height="87" transform="translate(727.32 930.68) scale(1.02 1)" xlink:href="#New_Symbol"/>
        <use width="87" height="87" transform="translate(767.03 969.71) scale(1.02 1)" xlink:href="#New_Symbol"/>
        <use width="87" height="87" transform="translate(970.54 965.83) scale(1.02 1)" xlink:href="#New_Symbol"/>
        <use width="87" height="87" transform="translate(1043.14 950.19) scale(1.02 1)" xlink:href="#New_Symbol"/>
        <use width="87" height="87" transform="translate(1129.62 927.8) scale(1.02 1)" xlink:href="#New_Symbol"/>
        <use width="87" height="87" transform="translate(1235.99 922.28) scale(1.02 1)" xlink:href="#New_Symbol"/>
        <use width="87" height="87" transform="translate(1281.13 932.62) scale(1.02 1)" xlink:href="#New_Symbol"/>
        <use width="87" height="87" transform="translate(1375.84 945.78) scale(1.02 1)" xlink:href="#New_Symbol"/>
        <use width="87" height="87" transform="translate(1521.92 939.06) scale(1.02 1)" xlink:href="#New_Symbol"/>
        <use width="87" height="87" transform="translate(1613.27 919.45) scale(1.02 1)" xlink:href="#New_Symbol"/>
        <use width="87" height="87" transform="translate(1647.98 895.02) scale(1.02 1)" xlink:href="#New_Symbol"/>
        <use width="87" height="87" transform="translate(1717.85 889.93) scale(1.02 1)" xlink:href="#New_Symbol"/>
        <use width="87" height="87" transform="translate(1761.85 880.88) scale(1.02 1)" xlink:href="#New_Symbol"/>
        <use width="87" height="87" transform="translate(1556.51 901.07) scale(1.02 1)" xlink:href="#New_Symbol"/>
        <use width="87" height="87" transform="translate(1457.88 899.24) scale(1.02 1)" xlink:href="#New_Symbol"/>
        <use width="87" height="87" transform="translate(1446.73 861.59) scale(1.02 1)" xlink:href="#New_Symbol"/>
        <use width="87" height="87" transform="translate(1453.38 829.48) scale(1.02 1)" xlink:href="#New_Symbol"/>
        <use width="87" height="87" transform="translate(1366.47 846.54) scale(1.02 1)" xlink:href="#New_Symbol"/>
        <use width="87" height="87" transform="translate(1334.8 792.46) scale(1.02 1)" xlink:href="#New_Symbol"/>
        <use width="87" height="87" transform="translate(1144.09 800.75) scale(1.02 1)" xlink:href="#New_Symbol"/>
        <use width="87" height="87" transform="translate(1092.86 748.15) scale(1.02 1)" xlink:href="#New_Symbol"/>
        <use width="87" height="87" transform="translate(991.68 713.08) scale(1.02 1)" xlink:href="#New_Symbol"/>
        <use width="87" height="87" transform="translate(864.6 643.03) scale(1.02 1)" xlink:href="#New_Symbol"/>
        <use width="87" height="87" transform="translate(769.74 587.99) scale(1.02 1)" xlink:href="#New_Symbol"/>
        <use width="87" height="87" transform="translate(694.3 583.35) scale(1.02 1)" xlink:href="#New_Symbol"/>
        <use width="87" height="87" transform="translate(606.58 573.2) scale(1.02 1)" xlink:href="#New_Symbol"/>
        <use width="87" height="87" transform="translate(571.35 601.39) scale(1.02 1)" xlink:href="#New_Symbol"/>
        <use width="87" height="87" transform="translate(448.91 635.02) scale(1.02 1)" xlink:href="#New_Symbol"/>
        <use width="87" height="87" transform="translate(401.57 634.42) scale(1.02 1)" xlink:href="#New_Symbol"/>
        <use width="87" height="87" transform="translate(481.33 707.93) scale(1.02 1)" xlink:href="#New_Symbol"/>
        <use width="87" height="87" transform="translate(578.56 672.92) scale(1.02 1)" xlink:href="#New_Symbol"/>
        <use width="87" height="87" transform="translate(582.97 385.19) scale(1.02 1)" xlink:href="#New_Symbol"/>
        <use width="87" height="87" transform="translate(668.25 69.95) scale(1.02 1)" xlink:href="#New_Symbol"/>
        <use width="87" height="87" transform="translate(774.8 26.64) scale(1.02 1)" xlink:href="#New_Symbol"/>
        <use width="87" height="87" transform="translate(887.32 89.7) scale(1.02 1)" xlink:href="#New_Symbol"/>
        <use width="87" height="87" transform="translate(1013.73 207.58) scale(1.02 1)" xlink:href="#New_Symbol"/>
        <use width="87" height="87" transform="translate(1068.59 292.13) scale(1.02 1)" xlink:href="#New_Symbol"/>
        <use width="87" height="87" transform="translate(1136.95 391.11) scale(1.02 1)" xlink:href="#New_Symbol"/>
        <use width="87" height="87" transform="translate(1256.89 418) scale(1.02 1)" xlink:href="#New_Symbol"/>
        <use width="87" height="87" transform="translate(1295.58 393.88) scale(1.02 1)" xlink:href="#New_Symbol"/>
        <use width="87" height="87" transform="translate(1181.15 400.29) scale(1.02 1)" xlink:href="#New_Symbol"/>
        <use width="87" height="87" transform="translate(918.97 367.37) scale(1.02 1)" xlink:href="#New_Symbol"/>
        <use width="87" height="87" transform="translate(850.79 356.63) scale(1.02 1)" xlink:href="#New_Symbol"/>
        <use width="87" height="87" transform="translate(825.7 326.74) scale(1.02 1)" xlink:href="#New_Symbol"/>
        <use width="87" height="87" transform="translate(789.17 324.04) scale(1.02 1)" xlink:href="#New_Symbol"/>
        <use width="87" height="87" transform="translate(795.93 393.26) scale(1.02 1)" xlink:href="#New_Symbol"/>
        <use width="87" height="87" transform="translate(810.24 458.26) scale(1.02 1)" xlink:href="#New_Symbol"/>
        <use width="87" height="87" transform="translate(631.3 471.44) scale(1.02 1)" xlink:href="#New_Symbol"/>
        <use width="87" height="87" transform="translate(496.26 521.51) scale(1.02 1)" xlink:href="#New_Symbol"/>
        <use width="87" height="87" transform="translate(417.54 511.61) scale(1.02 1)" xlink:href="#New_Symbol"/>
        <use width="87" height="87" transform="translate(326.87 469.52) scale(1.02 1)" xlink:href="#New_Symbol"/>
        <use width="87" height="87" transform="translate(186.02 421.47) scale(1.02 1)" xlink:href="#New_Symbol"/>
        <use width="87" height="87" transform="translate(163.19 478.4) scale(1.02 1)" xlink:href="#New_Symbol"/>
        <use width="87" height="87" transform="translate(210.76 526.55) scale(1.02 1)" xlink:href="#New_Symbol"/>
        <use width="87" height="87" transform="translate(196.76 451.79) scale(1.02 1)" xlink:href="#New_Symbol"/>
        <use width="87" height="87" transform="translate(151.19 349.57) scale(1.02 1)" xlink:href="#New_Symbol"/>
        <use width="87" height="87" transform="translate(90.29 275.46) scale(1.02 1)" xlink:href="#New_Symbol"/>
        <use width="87" height="87" transform="translate(124.62 269.07) scale(1.02 1)" xlink:href="#New_Symbol"/>
        <use width="87" height="87" transform="translate(303.81 374.47) scale(1.02 1)" xlink:href="#New_Symbol"/>
        <use width="87" height="87" transform="translate(384.38 439.2) scale(1.02 1)" xlink:href="#New_Symbol"/>
        <use width="87" height="87" transform="translate(600.46 445.75) scale(1.02 1)" xlink:href="#New_Symbol"/>
        <use width="87" height="87" transform="translate(1036.09 394.38) scale(1.02 1)" xlink:href="#New_Symbol"/>
        <use width="87" height="87" transform="translate(1132.07 350.12) scale(1.02 1)" xlink:href="#New_Symbol"/>
        <use width="87" height="87" transform="translate(1238.96 330.26) scale(1.02 1)" xlink:href="#New_Symbol"/>
        <use width="87" height="87" transform="translate(1322.24 261.39) scale(1.02 1)" xlink:href="#New_Symbol"/>
        <use width="87" height="87" transform="translate(1384.92 207.35) scale(1.02 1)" xlink:href="#New_Symbol"/>
        <use width="87" height="87" transform="translate(1443.52 201.17) scale(1.02 1)" xlink:href="#New_Symbol"/>
        <use width="87" height="87" transform="translate(1480.27 203.51) scale(1.02 1)" xlink:href="#New_Symbol"/>
        <use width="87" height="87" transform="translate(1490.18 245.23) scale(1.02 1)" xlink:href="#New_Symbol"/>
        <use width="87" height="87" transform="translate(1345.09 182.51) scale(1.02 1)" xlink:href="#New_Symbol"/>
        <use width="87" height="87" transform="translate(1287.42 167.93) scale(1.02 1)" xlink:href="#New_Symbol"/>
        <use width="87" height="87" transform="translate(1234.39 173.95) scale(1.02 1)" xlink:href="#New_Symbol"/>
        <use width="87" height="87" transform="translate(1186.79 154.31) scale(1.02 1)" xlink:href="#New_Symbol"/>
        <use width="87" height="87" transform="translate(1095.4 120.31) scale(1.02 1)" xlink:href="#New_Symbol"/>
        <use width="87" height="87" transform="translate(993.67 127.19) scale(1.02 1)" xlink:href="#New_Symbol"/>
        <use width="87" height="87" transform="translate(912.05 146.74) scale(1.02 1)" xlink:href="#New_Symbol"/>
        <use width="87" height="87" transform="translate(827.19 128.82) scale(1.02 1)" xlink:href="#New_Symbol"/>
        <use width="87" height="87" transform="translate(721.34 261.15) scale(1.02 1)" xlink:href="#New_Symbol"/>
        <use width="87" height="87" transform="translate(672.74 324.27) scale(1.02 1)" xlink:href="#New_Symbol"/>
        <use width="87" height="87" transform="translate(623.42 320.36) scale(1.02 1)" xlink:href="#New_Symbol"/>
        <use width="87" height="87" transform="translate(444.32 295.54) scale(1.02 1)" xlink:href="#New_Symbol"/>
        <use width="87" height="87" transform="translate(405.38 261.78) scale(1.02 1)" xlink:href="#New_Symbol"/>
        <use width="87" height="87" transform="translate(361.38 227.47) scale(1.02 1)" xlink:href="#New_Symbol"/>
        <use width="87" height="87" transform="translate(305.98 235.07) scale(1.02 1)" xlink:href="#New_Symbol"/>
        <use width="87" height="87" transform="translate(260.14 233.45) scale(1.02 1)" xlink:href="#New_Symbol"/>
        <use width="87" height="87" transform="translate(373.71 286.72) scale(1.02 1)" xlink:href="#New_Symbol"/>
        <use width="87" height="87" transform="translate(560.16 282.28) scale(1.02 1)" xlink:href="#New_Symbol"/>
        <use width="87" height="87" transform="translate(729.88 355.78) scale(1.02 1)" xlink:href="#New_Symbol"/>
        <use width="87" height="87" transform="translate(1049.17 448.01) scale(1.02 1)" xlink:href="#New_Symbol"/>
        <use width="87" height="87" transform="translate(1244.3 371.63) scale(1.02 1)" xlink:href="#New_Symbol"/>
        <use width="87" height="87" transform="translate(1341.35 336.53) scale(1.02 1)" xlink:href="#New_Symbol"/>
        <use width="87" height="87" transform="translate(1515.51 310.86) scale(1.02 1)" xlink:href="#New_Symbol"/>
        <use width="87" height="87" transform="translate(1545.44 366.73) scale(1.02 1)" xlink:href="#New_Symbol"/>
        <use width="87" height="87" transform="translate(1557.64 471.31) scale(1.02 1)" xlink:href="#New_Symbol"/>
        <use width="87" height="87" transform="translate(1606.01 494.66) scale(1.02 1)" xlink:href="#New_Symbol"/>
        <use width="87" height="87" transform="translate(1539.26 556.55) scale(1.02 1)" xlink:href="#New_Symbol"/>
        <use width="87" height="87" transform="translate(1507.51 585.1) scale(1.02 1)" xlink:href="#New_Symbol"/>
        <use width="87" height="87" transform="translate(1458.6 639.29) scale(1.02 1)" xlink:href="#New_Symbol"/>
        <use width="87" height="87" transform="translate(1411.33 681.89) scale(1.02 1)" xlink:href="#New_Symbol"/>
        <use width="87" height="87" transform="translate(1462.67 703.32) scale(1.02 1)" xlink:href="#New_Symbol"/>
        <use width="87" height="87" transform="translate(1499.31 694.63) scale(1.02 1)" xlink:href="#New_Symbol"/>
        <use width="87" height="87" transform="translate(1551.25 681.36) scale(1.02 1)" xlink:href="#New_Symbol"/>
        <use width="87" height="87" transform="translate(1699.99 586.91) scale(1.02 1)" xlink:href="#New_Symbol"/>
        <use width="87" height="87" transform="translate(1720.63 400.25) scale(1.02 1)" xlink:href="#New_Symbol"/>
        <use width="87" height="87" transform="translate(1692.59 319.64) scale(1.02 1)" xlink:href="#New_Symbol"/>
        <use width="87" height="87" transform="translate(1689.54 271.71) scale(1.02 1)" xlink:href="#New_Symbol"/>
        <use width="87" height="87" transform="translate(1693.07 202.51) scale(1.02 1)" xlink:href="#New_Symbol"/>
        <use width="87" height="87" transform="translate(1722.2 178.76) scale(1.02 1)" xlink:href="#New_Symbol"/>
        <use width="87" height="87" transform="translate(1697.88 148.86) scale(1.02 1)" xlink:href="#New_Symbol"/>
        <use width="87" height="87" transform="translate(1531.25 163.88) scale(1.02 1)" xlink:href="#New_Symbol"/>
        <use width="87" height="87" transform="translate(1455.88 137.42) scale(1.02 1)" xlink:href="#New_Symbol"/>
        <use width="87" height="87" transform="translate(1354.96 133.91) scale(1.02 1)" xlink:href="#New_Symbol"/>
        <use width="87" height="87" transform="translate(1305.83 98.43) scale(1.02 1)" xlink:href="#New_Symbol"/>
        <use width="87" height="87" transform="translate(1222.95 51.77) scale(1.02 1)" xlink:href="#New_Symbol"/>
        <use width="87" height="87" transform="translate(1151.66 40.54) scale(1.02 1)" xlink:href="#New_Symbol"/>
        <use width="87" height="87" transform="translate(1083.66 44.56) scale(1.02 1)" xlink:href="#New_Symbol"/>
        <use width="87" height="87" transform="translate(1034.86 53.9) scale(1.02 1)" xlink:href="#New_Symbol"/>
        <use width="87" height="87" transform="translate(988.32 48.02) scale(1.02 1)" xlink:href="#New_Symbol"/>
        <use width="87" height="87" transform="translate(888.52 32.05) scale(1.02 1)" xlink:href="#New_Symbol"/>
        <use width="87" height="87" transform="translate(623.12 213.05) scale(1.02 1)" xlink:href="#New_Symbol"/>
        <use width="87" height="87" transform="translate(513.75 282.13) scale(1.02 1)" xlink:href="#New_Symbol"/>
        <use width="87" height="87" transform="translate(521.39 327.11) scale(1.02 1)" xlink:href="#New_Symbol"/>
        <use width="87" height="87" transform="translate(457.6 366.46) scale(1.02 1)" xlink:href="#New_Symbol"/>
        <use width="87" height="87" transform="translate(447.37 403.85) scale(1.02 1)" xlink:href="#New_Symbol"/>
        <use width="87" height="87" transform="translate(371.96 475.19) scale(1.02 1)" xlink:href="#New_Symbol"/>
        <use width="87" height="87" transform="translate(328 528.68) scale(1.02 1)" xlink:href="#New_Symbol"/>
        <use width="87" height="87" transform="translate(317.08 582) scale(1.02 1)" xlink:href="#New_Symbol"/>
        <use width="87" height="87" transform="translate(237.87 672.01) scale(1.02 1)" xlink:href="#New_Symbol"/>
        <use width="87" height="87" transform="translate(158.36 679.8) scale(1.02 1)" xlink:href="#New_Symbol"/>
        <use width="87" height="87" transform="translate(130.69 711.77) scale(1.02 1)" xlink:href="#New_Symbol"/>
        <use width="87" height="87" transform="translate(146.49 776.97) scale(1.02 1)" xlink:href="#New_Symbol"/>
        <use width="87" height="87" transform="translate(292.73 851.32) scale(1.02 1)" xlink:href="#New_Symbol"/>
        <use width="87" height="87" transform="translate(374.27 859.75) scale(1.02 1)" xlink:href="#New_Symbol"/>
        <use width="87" height="87" transform="translate(391.96 827.16) scale(1.02 1)" xlink:href="#New_Symbol"/>
        <use width="87" height="87" transform="translate(523.69 847.87) scale(1.02 1)" xlink:href="#New_Symbol"/>
        <use width="87" height="87" transform="translate(576.32 835.94) scale(1.02 1)" xlink:href="#New_Symbol"/>
        <use width="87" height="87" transform="translate(-59.89 1019.94) scale(1.02 1)" xlink:href="#New_Symbol"/>
        <use width="87" height="87" transform="translate(-76.27 969.79) scale(1.02 1)" xlink:href="#New_Symbol"/>
        <use width="87" height="87" transform="translate(-87 998.77) scale(1.02 1)" xlink:href="#New_Symbol"/>
        <use width="87" height="87" transform="translate(-9.45 1005.47) scale(1.02 1)" xlink:href="#New_Symbol"/>
        <use width="87" height="87" transform="translate(10.24 1036.32) scale(1.02 1)" xlink:href="#New_Symbol"/>
        <use width="87" height="87" transform="translate(67.28 1044.92) scale(1.02 1)" xlink:href="#New_Symbol"/>
        <use width="87" height="87" transform="translate(127 1057.44) scale(1.02 1)" xlink:href="#New_Symbol"/>
        <use width="87" height="87" transform="translate(197.79 1066.17) scale(1.02 1)" xlink:href="#New_Symbol"/>
        <use width="87" height="87" transform="translate(441.41 1031.62) scale(1.02 1)" xlink:href="#New_Symbol"/>
        <use width="87" height="87" transform="translate(411.85 1004.22) scale(1.02 1)" xlink:href="#New_Symbol"/>
        <use width="87" height="87" transform="translate(429.41 966.42) scale(1.02 1)" xlink:href="#New_Symbol"/>
        <use width="87" height="87" transform="translate(437.22 929.51) scale(1.02 1)" xlink:href="#New_Symbol"/>
        <use width="87" height="87" transform="translate(535.56 959.01) scale(1.02 1)" xlink:href="#New_Symbol"/>
        <use width="87" height="87" transform="translate(645.5 971.21) scale(1.02 1)" xlink:href="#New_Symbol"/>
        <use width="87" height="87" transform="translate(699.33 953.37) scale(1.02 1)" xlink:href="#New_Symbol"/>
        <use width="87" height="87" transform="translate(782.28 918.19) scale(1.02 1)" xlink:href="#New_Symbol"/>
        <use width="87" height="87" transform="translate(855.24 942.19) scale(1.02 1)" xlink:href="#New_Symbol"/>
        <use width="87" height="87" transform="translate(872.98 991.29) scale(1.02 1)" xlink:href="#New_Symbol"/>
        <use width="87" height="87" transform="translate(924.23 1027.94) scale(1.02 1)" xlink:href="#New_Symbol"/>
        <use width="87" height="87" transform="translate(969.97 1027.27) scale(1.02 1)" xlink:href="#New_Symbol"/>
        <use width="87" height="87" transform="translate(1015.81 1009.67) scale(1.02 1)" xlink:href="#New_Symbol"/>
        <use width="87" height="87" transform="translate(1084.28 1000.99) scale(1.02 1)" xlink:href="#New_Symbol"/>
        <use width="87" height="87" transform="translate(1136.15 996.7) scale(1.02 1)" xlink:href="#New_Symbol"/>
        <use width="87" height="87" transform="translate(1194.71 991.49) scale(1.02 1)" xlink:href="#New_Symbol"/>
        <use width="87" height="87" transform="translate(1271.22 1003.8) scale(1.02 1)" xlink:href="#New_Symbol"/>
        <use width="87" height="87" transform="translate(1328.45 1014.86) scale(1.02 1)" xlink:href="#New_Symbol"/>
        <use width="87" height="87" transform="translate(1376.94 1013.31) scale(1.02 1)" xlink:href="#New_Symbol"/>
        <use width="87" height="87" transform="translate(1430.18 1005.2) scale(1.02 1)" xlink:href="#New_Symbol"/>
        <use width="87" height="87" transform="translate(1486.55 985.79) scale(1.02 1)" xlink:href="#New_Symbol"/>
        <use width="87" height="87" transform="translate(1553.07 986.39) scale(1.02 1)" xlink:href="#New_Symbol"/>
        <use width="87" height="87" transform="translate(1649.38 983.01) scale(1.02 1)" xlink:href="#New_Symbol"/>
        <use width="87" height="87" transform="translate(1681.63 974.41) scale(1.02 1)" xlink:href="#New_Symbol"/>
        <use width="87" height="87" transform="translate(1682.21 939.96) scale(1.02 1)" xlink:href="#New_Symbol"/>
        <use width="87" height="87" transform="translate(1751.34 947.5) scale(1.02 1)" xlink:href="#New_Symbol"/>
        <use width="87" height="87" transform="translate(1785.76 916.58) scale(1.02 1)" xlink:href="#New_Symbol"/>
        <use width="87" height="87" transform="translate(1781.73 833.76) scale(1.02 1)" xlink:href="#New_Symbol"/>
        <use width="87" height="87" transform="translate(1764.09 778.54) scale(1.02 1)" xlink:href="#New_Symbol"/>
        <use width="87" height="87" transform="translate(1802.48 725.8) scale(1.02 1)" xlink:href="#New_Symbol"/>
        <use width="87" height="87" transform="translate(1828.78 680.45) scale(1.02 1)" xlink:href="#New_Symbol"/>
        <use width="87" height="87" transform="translate(1871.47 523.14) scale(1.02 1)" xlink:href="#New_Symbol"/>
        <use width="87" height="87" transform="translate(1880.65 384.68) scale(1.02 1)" xlink:href="#New_Symbol"/>
        <use width="87" height="87" transform="translate(1877.93 336.11) scale(1.02 1)" xlink:href="#New_Symbol"/>
        <use width="87" height="87" transform="translate(1879.82 298.95) scale(1.02 1)" xlink:href="#New_Symbol"/>
        <use width="87" height="87" transform="translate(1859.59 246.65) scale(1.02 1)" xlink:href="#New_Symbol"/>
        <use width="87" height="87" transform="translate(1799.28 226.62) scale(1.02 1)" xlink:href="#New_Symbol"/>
        <use width="87" height="87" transform="translate(1746.46 238.76) scale(1.02 1)" xlink:href="#New_Symbol"/>
        <use width="87" height="87" transform="translate(1706.27 234.77) scale(1.02 1)" xlink:href="#New_Symbol"/>
        <use width="87" height="87" transform="translate(1655.31 206.24) scale(1.02 1)" xlink:href="#New_Symbol"/>
        <use width="87" height="87" transform="translate(1645.59 153.66) scale(1.02 1)" xlink:href="#New_Symbol"/>
        <use width="87" height="87" transform="translate(1583.63 80.15) scale(1.02 1)" xlink:href="#New_Symbol"/>
        <use width="87" height="87" transform="translate(1548 61.92) scale(1.02 1)" xlink:href="#New_Symbol"/>
        <use width="87" height="87" transform="translate(1505.91 38.2) scale(1.02 1)" xlink:href="#New_Symbol"/>
        <use width="87" height="87" transform="translate(1449.75 31.46) scale(1.02 1)" xlink:href="#New_Symbol"/>
        <use width="87" height="87" transform="translate(1399.66 33.3) scale(1.02 1)" xlink:href="#New_Symbol"/>
        <use width="87" height="87" transform="translate(1327.29 42.94) scale(1.02 1)" xlink:href="#New_Symbol"/>
        <use width="87" height="87" transform="translate(1294.09 33.11) scale(1.02 1)" xlink:href="#New_Symbol"/>
        <use width="87" height="87" transform="translate(1182.43 97.95) scale(1.02 1)" xlink:href="#New_Symbol"/>
        <use width="87" height="87" transform="translate(1111.35 152.99) scale(1.02 1)" xlink:href="#New_Symbol"/>
        <use width="87" height="87" transform="translate(1018.87 261.2) scale(1.02 1)" xlink:href="#New_Symbol"/>
        <use width="87" height="87" transform="translate(1003.48 365.68) scale(1.02 1)" xlink:href="#New_Symbol"/>
        <use width="87" height="87" transform="translate(1000.37 424.89) scale(1.02 1)" xlink:href="#New_Symbol"/>
        <use width="87" height="87" transform="translate(979.63 549.97) scale(1.02 1)" xlink:href="#New_Symbol"/>
        <use width="87" height="87" transform="translate(1066.52 595.85) scale(1.02 1)" xlink:href="#New_Symbol"/>
        <use width="87" height="87" transform="translate(1110.96 593) scale(1.02 1)" xlink:href="#New_Symbol"/>
        <use width="87" height="87" transform="translate(1174.65 626.57) scale(1.02 1)" xlink:href="#New_Symbol"/>
        <use width="87" height="87" transform="translate(1180.7 595.07) scale(1.02 1)" xlink:href="#New_Symbol"/>
        <use width="87" height="87" transform="translate(1125.62 699.93) scale(1.02 1)" xlink:href="#New_Symbol"/>
        <use width="87" height="87" transform="translate(1057.22 800.73) scale(1.02 1)" xlink:href="#New_Symbol"/>
        <use width="87" height="87" transform="translate(984.89 868.91) scale(1.02 1)" xlink:href="#New_Symbol"/>
        <use width="87" height="87" transform="translate(892.03 891.19) scale(1.02 1)" xlink:href="#New_Symbol"/>
        <use width="87" height="87" transform="translate(770.53 829.33) scale(1.02 1)" xlink:href="#New_Symbol"/>
        <use width="87" height="87" transform="translate(686.31 785.21) scale(1.02 1)" xlink:href="#New_Symbol"/>
        <use width="87" height="87" transform="translate(597.61 789.92) scale(1.02 1)" xlink:href="#New_Symbol"/>
        <use width="87" height="87" transform="translate(517.54 756.85) scale(1.02 1)" xlink:href="#New_Symbol"/>
        <use width="87" height="87" transform="translate(437.14 722.88) scale(1.02 1)" xlink:href="#New_Symbol"/>
        <use width="87" height="87" transform="translate(385.16 733.27) scale(1.02 1)" xlink:href="#New_Symbol"/>
        <use width="87" height="87" transform="translate(367.05 787.73) scale(1.02 1)" xlink:href="#New_Symbol"/>
        <use width="87" height="87" transform="translate(318.67 824.83) scale(1.02 1)" xlink:href="#New_Symbol"/>
        <use width="87" height="87" transform="translate(252.93 803.23) scale(1.02 1)" xlink:href="#New_Symbol"/>
        <use width="87" height="87" transform="translate(209.41 771.05) scale(1.02 1)" xlink:href="#New_Symbol"/>
        <use width="87" height="87" transform="translate(195.94 816.01) scale(1.02 1)" xlink:href="#New_Symbol"/>
        <use width="87" height="87" transform="translate(185.24 859.58) scale(1.02 1)" xlink:href="#New_Symbol"/>
        <use width="87" height="87" transform="translate(158.6 831.37) scale(1.02 1)" xlink:href="#New_Symbol"/>
        <use width="87" height="87" transform="translate(17.79 741.38) scale(1.02 1)" xlink:href="#New_Symbol"/>
        <use width="87" height="87" transform="translate(18.84 817.05) scale(1.02 1)" xlink:href="#New_Symbol"/>
        <use width="87" height="87" transform="translate(-14.98 755.29) scale(1.02 1)" xlink:href="#New_Symbol"/>
        <use width="87" height="87" transform="translate(-7.96 791.59) scale(1.02 1)" xlink:href="#New_Symbol"/>
        <use width="87" height="87" transform="translate(29.01 776.4) scale(1.02 1)" xlink:href="#New_Symbol"/>
        <use width="87" height="87" transform="translate(66.42 806.89) scale(1.02 1)" xlink:href="#New_Symbol"/>
        <use width="87" height="87" transform="translate(137.28 883.07) scale(1.02 1)" xlink:href="#New_Symbol"/>
        <use width="87" height="87" transform="translate(198.23 904.06) scale(1.02 1)" xlink:href="#New_Symbol"/>
        <use width="87" height="87" transform="translate(264.91 908.89) scale(1.02 1)" xlink:href="#New_Symbol"/>
        <use width="87" height="87" transform="translate(1796.95 412.23) scale(1.02 1)" xlink:href="#New_Symbol"/>
        <use width="87" height="87" transform="translate(1766.75 391.99) scale(1.02 1)" xlink:href="#New_Symbol"/>
        <use width="87" height="87" transform="translate(1780.36 446.9) scale(1.02 1)" xlink:href="#New_Symbol"/>
        <use width="87" height="87" transform="translate(1750.35 434.33) scale(1.02 1)" xlink:href="#New_Symbol"/>
        <use width="87" height="87" transform="translate(1710.47 445.01) scale(1.02 1)" xlink:href="#New_Symbol"/>
        <use width="87" height="87" transform="translate(1649.42 396.75) scale(1.02 1)" xlink:href="#New_Symbol"/>
        <use width="87" height="87" transform="translate(1650.76 438.57) scale(1.02 1)" xlink:href="#New_Symbol"/>
        <use width="87" height="87" transform="translate(1601.83 389.16) scale(1.02 1)" xlink:href="#New_Symbol"/>
        <use width="87" height="87" transform="translate(1601.37 437.7) scale(1.02 1)" xlink:href="#New_Symbol"/>
        <use width="87" height="87" transform="translate(1575.5 416.17) scale(1.02 1)" xlink:href="#New_Symbol"/>
        <use width="87" height="87" transform="translate(1503.42 413.43) scale(1.02 1)" xlink:href="#New_Symbol"/>
        <use width="87" height="87" transform="translate(1442.55 386.3) scale(1.02 1)" xlink:href="#New_Symbol"/>
        <use width="87" height="87" transform="translate(1408.57 411.65) scale(1.02 1)" xlink:href="#New_Symbol"/>
        <use width="87" height="87" transform="translate(1420.35 449.38) scale(1.02 1)" xlink:href="#New_Symbol"/>
        <use width="87" height="87" transform="translate(1374.76 439.47) scale(1.02 1)" xlink:href="#New_Symbol"/>
        <use width="87" height="87" transform="translate(1333.25 473.51) scale(1.02 1)" xlink:href="#New_Symbol"/>
        <use width="87" height="87" transform="translate(1287.01 489.41) scale(1.02 1)" xlink:href="#New_Symbol"/>
        <use width="87" height="87" transform="translate(1224.46 488.57) scale(1.02 1)" xlink:href="#New_Symbol"/>
        <use width="87" height="87" transform="translate(1169.48 478.05) scale(1.02 1)" xlink:href="#New_Symbol"/>
        <use width="87" height="87" transform="translate(1805.73 72.44) scale(1.02 1)" xlink:href="#New_Symbol"/>
        <use width="87" height="87" transform="translate(1704.1 92.05) scale(1.02 1)" xlink:href="#New_Symbol"/>
        <use width="87" height="87" transform="translate(1641.62 83.99) scale(1.02 1)" xlink:href="#New_Symbol"/>
        <use width="87" height="87" transform="translate(1602.75 115.42) scale(1.02 1)" xlink:href="#New_Symbol"/>
        <use width="87" height="87" transform="translate(1538.49 110.05) scale(1.02 1)" xlink:href="#New_Symbol"/>
        <use width="87" height="87" transform="translate(1475.05 86.02) scale(1.02 1)" xlink:href="#New_Symbol"/>
        <use width="87" height="87" transform="translate(1368.95 90.94) scale(1.02 1)" xlink:href="#New_Symbol"/>
        <use width="87" height="87" transform="translate(1764.77 187.95) scale(1.02 1)" xlink:href="#New_Symbol"/>
        <use width="87" height="87" transform="translate(1569.36 255.56) scale(1.02 1)" xlink:href="#New_Symbol"/>
        <use width="87" height="87" transform="translate(1382.27 289.84) scale(1.02 1)" xlink:href="#New_Symbol"/>
        <use width="87" height="87" transform="translate(1432.1 242.92) scale(1.02 1)" xlink:href="#New_Symbol"/>
        <use width="87" height="87" transform="translate(1322.89 222.25) scale(1.02 1)" xlink:href="#New_Symbol"/>
        <use width="87" height="87" transform="translate(1189.22 219.72) scale(1.02 1)" xlink:href="#New_Symbol"/>
        <use width="87" height="87" transform="translate(1112.64 209.68) scale(1.02 1)" xlink:href="#New_Symbol"/>
        <use width="87" height="87" transform="translate(970.94 171.7) scale(1.02 1)" xlink:href="#New_Symbol"/>
        <use width="87" height="87" transform="translate(863.18 164.08) scale(1.02 1)" xlink:href="#New_Symbol"/>
        <use width="87" height="87" transform="translate(724.24 84.76) scale(1.02 1)" xlink:href="#New_Symbol"/>
        <use width="87" height="87" transform="translate(692.75 148.2) scale(1.02 1)" xlink:href="#New_Symbol"/>
        <use width="87" height="87" transform="translate(801.79 160.36) scale(1.02 1)" xlink:href="#New_Symbol"/>
        <use width="87" height="87" transform="translate(772.14 123.37) scale(1.02 1)" xlink:href="#New_Symbol"/>
        <use width="87" height="87" transform="translate(748.86 159.33) scale(1.02 1)" xlink:href="#New_Symbol"/>
        <use width="87" height="87" transform="translate(716.42 117.56) scale(1.02 1)" xlink:href="#New_Symbol"/>
        <use width="87" height="87" transform="translate(811.62 235.21) scale(1.02 1)" xlink:href="#New_Symbol"/>
        <use width="87" height="87" transform="translate(864.71 260.12) scale(1.02 1)" xlink:href="#New_Symbol"/>
        <use width="87" height="87" transform="translate(890.5 295.14) scale(1.02 1)" xlink:href="#New_Symbol"/>
        <use width="87" height="87" transform="translate(918.33 318.88) scale(1.02 1)" xlink:href="#New_Symbol"/>
        <use width="87" height="87" transform="translate(-41.74 190.85) scale(1.02 1)" xlink:href="#New_Symbol"/>
        <use width="87" height="87" transform="translate(-6.93 188.28) scale(1.02 1)" xlink:href="#New_Symbol"/>
        <use width="87" height="87" transform="translate(53.62 190.87) scale(1.02 1)" xlink:href="#New_Symbol"/>
        <use width="87" height="87" transform="translate(56.17 230.43) scale(1.02 1)" xlink:href="#New_Symbol"/>
        <use width="87" height="87" transform="translate(495.48 420.56) scale(1.02 1)" xlink:href="#New_Symbol"/>
        <use width="87" height="87" transform="translate(608.18 514.97) scale(1.02 1)" xlink:href="#New_Symbol"/>
        <use width="87" height="87" transform="translate(658.45 525.22) scale(1.02 1)" xlink:href="#New_Symbol"/>
        <use width="87" height="87" transform="translate(676.84 497.55) scale(1.02 1)" xlink:href="#New_Symbol"/>
        <use width="87" height="87" transform="translate(187.8 567.32) scale(1.02 1)" xlink:href="#New_Symbol"/>
        <use width="87" height="87" transform="translate(268.28 582.91) scale(1.02 1)" xlink:href="#New_Symbol"/>
        <use width="87" height="87" transform="translate(359.82 601.77) scale(1.02 1)" xlink:href="#New_Symbol"/>
        <use width="87" height="87" transform="translate(426.72 605.69) scale(1.02 1)" xlink:href="#New_Symbol"/>
        <use width="87" height="87" transform="translate(79.2 475) scale(1.02 1)" xlink:href="#New_Symbol"/>
        <use width="87" height="87" transform="translate(282.23 468.18) scale(1.02 1)" xlink:href="#New_Symbol"/>
        <use width="87" height="87" transform="translate(487.23 469.97) scale(1.02 1)" xlink:href="#New_Symbol"/>
        <use width="87" height="87" transform="translate(750.92 508.92) scale(1.02 1)" xlink:href="#New_Symbol"/>
        <use width="87" height="87" transform="translate(718.43 421.77) scale(1.02 1)" xlink:href="#New_Symbol"/>
        <use width="87" height="87" transform="translate(826 576.7) scale(1.02 1)" xlink:href="#New_Symbol"/>
        <use width="87" height="87" transform="translate(979.68 611.57) scale(1.02 1)" xlink:href="#New_Symbol"/>
        <use width="87" height="87" transform="translate(495 809.29) scale(1.02 1)" xlink:href="#New_Symbol"/>
        <use width="87" height="87" transform="translate(612.43 748.54) scale(1.02 1)" xlink:href="#New_Symbol"/>
        <use width="87" height="87" transform="translate(680.9 740.36) scale(1.02 1)" xlink:href="#New_Symbol"/>
      </g>
      <g class="cls-7">
        <use width="215" height="215" transform="translate(240.68 78.14) scale(1.02 1)" xlink:href="#New_Symbol_1"/>
        <use width="215" height="215" transform="translate(248.66 125.57) scale(1.02 1)" xlink:href="#New_Symbol_1"/>
        <use width="215" height="215" transform="translate(430.54 74.02) scale(1.02 1)" xlink:href="#New_Symbol_1"/>
        <use width="215" height="215" transform="translate(363.91 67.1) scale(1.02 1)" xlink:href="#New_Symbol_1"/>
        <use width="215" height="215" transform="translate(403.63 26.47) scale(1.02 1)" xlink:href="#New_Symbol_1"/>
        <use width="215" height="215" transform="translate(388.76 134.85) scale(1.02 1)" xlink:href="#New_Symbol_1"/>
        <use width="215" height="215" transform="translate(410.05 221.92) scale(1.02 1)" xlink:href="#New_Symbol_1"/>
        <use width="215" height="215" transform="translate(550.5 204.97) scale(1.02 1)" xlink:href="#New_Symbol_1"/>
        <use width="215" height="215" transform="translate(649.93 234) scale(1.02 1)" xlink:href="#New_Symbol_1"/>
        <use width="215" height="215" transform="translate(806.19 244.26) scale(1.02 1)" xlink:href="#New_Symbol_1"/>
        <use width="215" height="215" transform="translate(914.92 274.34) scale(1.02 1)" xlink:href="#New_Symbol_1"/>
        <use width="215" height="215" transform="translate(1008.62 282.61) scale(1.02 1)" xlink:href="#New_Symbol_1"/>
        <use width="215" height="215" transform="translate(1040.16 229.71) scale(1.02 1)" xlink:href="#New_Symbol_1"/>
        <use width="215" height="215" transform="translate(1182.84 242.43) scale(1.02 1)" xlink:href="#New_Symbol_1"/>
        <use width="215" height="215" transform="translate(447.67 627.24) scale(1.02 1)" xlink:href="#New_Symbol_1"/>
        <use width="215" height="215" transform="translate(325.74 600.5) scale(1.02 1)" xlink:href="#New_Symbol_1"/>
        <use width="215" height="215" transform="translate(259.41 630.31) scale(1.02 1)" xlink:href="#New_Symbol_1"/>
        <use width="215" height="215" transform="translate(370.46 650.6) scale(1.02 1)" xlink:href="#New_Symbol_1"/>
        <use width="215" height="215" transform="translate(457.31 566.14) scale(1.02 1)" xlink:href="#New_Symbol_1"/>
        <use width="215" height="215" transform="translate(375.94 488.89) scale(1.02 1)" xlink:href="#New_Symbol_1"/>
        <use width="215" height="215" transform="translate(307.38 435.56) scale(1.02 1)" xlink:href="#New_Symbol_1"/>
        <use width="215" height="215" transform="translate(611.77 543.4) scale(1.02 1)" xlink:href="#New_Symbol_1"/>
        <use width="215" height="215" transform="translate(754.05 562.17) scale(1.02 1)" xlink:href="#New_Symbol_1"/>
        <use width="215" height="215" transform="translate(814.33 582.41) scale(1.02 1)" xlink:href="#New_Symbol_1"/>
        <use width="215" height="215" transform="translate(811.13 500.12) scale(1.02 1)" xlink:href="#New_Symbol_1"/>
        <use width="215" height="215" transform="translate(840.35 453.11) scale(1.02 1)" xlink:href="#New_Symbol_1"/>
        <use width="215" height="215" transform="translate(880.84 630.05) scale(1.02 1)" xlink:href="#New_Symbol_1"/>
        <use width="215" height="215" transform="translate(1159.07 582.04) scale(1.02 1)" xlink:href="#New_Symbol_1"/>
        <use width="215" height="215" transform="translate(1421.67 495.09) scale(1.02 1)" xlink:href="#New_Symbol_1"/>
        <use width="215" height="215" transform="translate(1468.75 393.21) scale(1.02 1)" xlink:href="#New_Symbol_1"/>
        <use width="215" height="215" transform="translate(1466.62 238.35) scale(1.02 1)" xlink:href="#New_Symbol_1"/>
        <use width="215" height="215" transform="translate(1323.08 202.14) scale(1.02 1)" xlink:href="#New_Symbol_1"/>
        <use width="215" height="215" transform="translate(1181.7 109.87) scale(1.02 1)" xlink:href="#New_Symbol_1"/>
        <use width="215" height="215" transform="translate(1112.14 42.02) scale(1.02 1)" xlink:href="#New_Symbol_1"/>
        <use width="215" height="215" transform="translate(1018.29 0.94) scale(1.02 1)" xlink:href="#New_Symbol_1"/>
        <use width="215" height="215" transform="translate(917.32 -22.31) scale(1.02 1)" xlink:href="#New_Symbol_1"/>
        <use width="215" height="215" transform="translate(831.24 -0.25) scale(1.02 1)" xlink:href="#New_Symbol_1"/>
        <use width="215" height="215" transform="translate(853.27 152.1) scale(1.02 1)" xlink:href="#New_Symbol_1"/>
        <use width="215" height="215" transform="translate(827.75 304.42) scale(1.02 1)" xlink:href="#New_Symbol_1"/>
        <use width="215" height="215" transform="translate(753.76 354.38) scale(1.02 1)" xlink:href="#New_Symbol_1"/>
        <use width="215" height="215" transform="translate(589.29 353.12) scale(1.02 1)" xlink:href="#New_Symbol_1"/>
        <use width="215" height="215" transform="translate(338.41 248.53) scale(1.02 1)" xlink:href="#New_Symbol_1"/>
        <use width="215" height="215" transform="translate(205.41 199.78) scale(1.02 1)" xlink:href="#New_Symbol_1"/>
        <use width="215" height="215" transform="translate(88.38 205.64) scale(1.02 1)" xlink:href="#New_Symbol_1"/>
        <use width="215" height="215" transform="translate(47.53 292.77) scale(1.02 1)" xlink:href="#New_Symbol_1"/>
        <use width="215" height="215" transform="translate(38.35 390.41) scale(1.02 1)" xlink:href="#New_Symbol_1"/>
        <use width="215" height="215" transform="translate(70.78 480.51) scale(1.02 1)" xlink:href="#New_Symbol_1"/>
        <use width="215" height="215" transform="translate(271.99 513.12) scale(1.02 1)" xlink:href="#New_Symbol_1"/>
        <use width="215" height="215" transform="translate(566.29 504.25) scale(1.02 1)" xlink:href="#New_Symbol_1"/>
        <use width="215" height="215" transform="translate(909.31 554.05) scale(1.02 1)" xlink:href="#New_Symbol_1"/>
        <use width="215" height="215" transform="translate(1390.48 566.8) scale(1.02 1)" xlink:href="#New_Symbol_1"/>
        <use width="215" height="215" transform="translate(1587.61 420.14) scale(1.02 1)" xlink:href="#New_Symbol_1"/>
        <use width="215" height="215" transform="translate(1620.02 492.9) scale(1.02 1)" xlink:href="#New_Symbol_1"/>
        <use width="215" height="215" transform="translate(1673.83 446.65) scale(1.02 1)" xlink:href="#New_Symbol_1"/>
        <use width="215" height="215" transform="translate(1665.35 290.88) scale(1.02 1)" xlink:href="#New_Symbol_1"/>
        <use width="215" height="215" transform="translate(1638.96 182.94) scale(1.02 1)" xlink:href="#New_Symbol_1"/>
        <use width="215" height="215" transform="translate(1555.79 137.74) scale(1.02 1)" xlink:href="#New_Symbol_1"/>
        <use width="215" height="215" transform="translate(1413 138.01) scale(1.02 1)" xlink:href="#New_Symbol_1"/>
        <use width="215" height="215" transform="translate(1260.68 87.22) scale(1.02 1)" xlink:href="#New_Symbol_1"/>
        <use width="215" height="215" transform="translate(1069.04 97.43) scale(1.02 1)" xlink:href="#New_Symbol_1"/>
        <use width="215" height="215" transform="translate(948.66 72.58) scale(1.02 1)" xlink:href="#New_Symbol_1"/>
        <use width="215" height="215" transform="translate(840.45 69.18) scale(1.02 1)" xlink:href="#New_Symbol_1"/>
        <use width="215" height="215" transform="translate(752.15 67.93) scale(1.02 1)" xlink:href="#New_Symbol_1"/>
        <use width="215" height="215" transform="translate(680.58 64.06) scale(1.02 1)" xlink:href="#New_Symbol_1"/>
        <use width="215" height="215" transform="translate(601.17 105.14) scale(1.02 1)" xlink:href="#New_Symbol_1"/>
        <use width="215" height="215" transform="translate(523.65 246.49) scale(1.02 1)" xlink:href="#New_Symbol_1"/>
        <use width="215" height="215" transform="translate(821.88 832.66) scale(1.02 1)" xlink:href="#New_Symbol_1"/>
        <use width="215" height="215" transform="translate(730.77 855.79) scale(1.02 1)" xlink:href="#New_Symbol_1"/>
        <use width="215" height="215" transform="translate(600.49 803.66) scale(1.02 1)" xlink:href="#New_Symbol_1"/>
        <use width="215" height="215" transform="translate(632.49 844.83) scale(1.02 1)" xlink:href="#New_Symbol_1"/>
        <use width="215" height="215" transform="translate(755.81 802.81) scale(1.02 1)" xlink:href="#New_Symbol_1"/>
        <use width="215" height="215" transform="translate(719.22 746.85) scale(1.02 1)" xlink:href="#New_Symbol_1"/>
        <use width="215" height="215" transform="translate(898.24 758.42) scale(1.02 1)" xlink:href="#New_Symbol_1"/>
        <use width="215" height="215" transform="translate(1038.77 772.07) scale(1.02 1)" xlink:href="#New_Symbol_1"/>
        <use width="215" height="215" transform="translate(1147.04 774.85) scale(1.02 1)" xlink:href="#New_Symbol_1"/>
        <use width="215" height="215" transform="translate(1242.44 737.8) scale(1.02 1)" xlink:href="#New_Symbol_1"/>
        <use width="215" height="215" transform="translate(1258.4 640.87) scale(1.02 1)" xlink:href="#New_Symbol_1"/>
        <use width="215" height="215" transform="translate(1151.44 511.68) scale(1.02 1)" xlink:href="#New_Symbol_1"/>
        <use width="215" height="215" transform="translate(1108.08 485.92) scale(1.02 1)" xlink:href="#New_Symbol_1"/>
        <use width="215" height="215" transform="translate(982.48 553.7) scale(1.02 1)" xlink:href="#New_Symbol_1"/>
        <use width="215" height="215" transform="translate(1071.47 575.55) scale(1.02 1)" xlink:href="#New_Symbol_1"/>
        <use width="215" height="215" transform="translate(1181.85 406.04) scale(1.02 1)" xlink:href="#New_Symbol_1"/>
        <use width="215" height="215" transform="translate(1354.63 375.28) scale(1.02 1)" xlink:href="#New_Symbol_1"/>
        <use width="215" height="215" transform="translate(53.4 761.36) scale(1.02 1)" xlink:href="#New_Symbol_1"/>
        <use width="215" height="215" transform="translate(33.21 705.04) scale(1.02 1)" xlink:href="#New_Symbol_1"/>
        <use width="215" height="215" transform="translate(22.48 590.87) scale(1.02 1)" xlink:href="#New_Symbol_1"/>
        <use width="215" height="215" transform="translate(185.12 803.25) scale(1.02 1)" xlink:href="#New_Symbol_1"/>
        <use width="215" height="215" transform="translate(279.97 762.11) scale(1.02 1)" xlink:href="#New_Symbol_1"/>
        <use width="215" height="215" transform="translate(443 722.73) scale(1.02 1)" xlink:href="#New_Symbol_1"/>
        <use width="215" height="215" transform="translate(1498.99 561.78) scale(1.02 1)" xlink:href="#New_Symbol_1"/>
        <use width="215" height="215" transform="translate(1319.9 510.54) scale(1.02 1)" xlink:href="#New_Symbol_1"/>
        <use width="215" height="215" transform="translate(1279.15 442.91) scale(1.02 1)" xlink:href="#New_Symbol_1"/>
        <use width="215" height="215" transform="translate(1129.63 372.23) scale(1.02 1)" xlink:href="#New_Symbol_1"/>
        <use width="215" height="215" transform="translate(956.87 423.91) scale(1.02 1)" xlink:href="#New_Symbol_1"/>
        <use width="215" height="215" transform="translate(738.23 426.36) scale(1.02 1)" xlink:href="#New_Symbol_1"/>
        <use width="215" height="215" transform="translate(630.84 388.71) scale(1.02 1)" xlink:href="#New_Symbol_1"/>
        <use width="215" height="215" transform="translate(482.56 342.31) scale(1.02 1)" xlink:href="#New_Symbol_1"/>
        <use width="215" height="215" transform="translate(402.38 348.63) scale(1.02 1)" xlink:href="#New_Symbol_1"/>
        <use width="215" height="215" transform="translate(270.72 338.69) scale(1.02 1)" xlink:href="#New_Symbol_1"/>
        <use width="215" height="215" transform="translate(190.92 313.65) scale(1.02 1)" xlink:href="#New_Symbol_1"/>
        <use width="215" height="215" transform="translate(173.48 369.42) scale(1.02 1)" xlink:href="#New_Symbol_1"/>
        <use width="215" height="215" transform="translate(186.25 417.39) scale(1.02 1)" xlink:href="#New_Symbol_1"/>
        <use width="215" height="215" transform="translate(1720.75 -27.83) scale(1.02 1)" xlink:href="#New_Symbol_1"/>
        <use width="215" height="215" transform="translate(1579.84 -10.53) scale(1.02 1)" xlink:href="#New_Symbol_1"/>
        <use width="215" height="215" transform="translate(1258 143.18) scale(1.02 1)" xlink:href="#New_Symbol_1"/>
        <use width="215" height="215" transform="translate(1650.31 700.11) scale(1.02 1)" xlink:href="#New_Symbol_1"/>
        <use width="215" height="215" transform="translate(1600.71 780.57) scale(1.02 1)" xlink:href="#New_Symbol_1"/>
        <use width="215" height="215" transform="translate(1652.46 758.58) scale(1.02 1)" xlink:href="#New_Symbol_1"/>
        <use width="215" height="215" transform="translate(1595.39 719.01) scale(1.02 1)" xlink:href="#New_Symbol_1"/>
        <use width="215" height="215" transform="translate(1421.03 855.32) scale(1.02 1)" xlink:href="#New_Symbol_1"/>
        <use width="215" height="215" transform="translate(1429.54 767.26) scale(1.02 1)" xlink:href="#New_Symbol_1"/>
        <use width="215" height="215" transform="translate(1460.65 812.31) scale(1.02 1)" xlink:href="#New_Symbol_1"/>
        <use width="215" height="215" transform="translate(1387.71 813.41) scale(1.02 1)" xlink:href="#New_Symbol_1"/>
      </g>
      <g>
        <use width="153" height="153" transform="translate(407.12 255.16) scale(1.05 1.03)" xlink:href="#New_Symbol_2"/>
        <use width="153" height="153" transform="translate(381.61 286.69) scale(1.05 1.03)" xlink:href="#New_Symbol_2"/>
        <use width="153" height="153" transform="translate(618.05 250.84) scale(1.05 1.03)" xlink:href="#New_Symbol_2"/>
        <use width="153" height="153" transform="translate(610.67 211.91) scale(1.05 1.03)" xlink:href="#New_Symbol_2"/>
        <use width="153" height="153" transform="translate(44.29 250.65) scale(1.05 1.03)" xlink:href="#New_Symbol_2"/>
        <use width="153" height="153" transform="translate(59.4 574.36) scale(1.05 1.03)" xlink:href="#New_Symbol_2"/>
        <use width="153" height="153" transform="translate(16.76 570.58) scale(1.05 1.03)" xlink:href="#New_Symbol_2"/>
        <use width="153" height="153" transform="translate(364.48 723.44) scale(1.05 1.03)" xlink:href="#New_Symbol_2"/>
        <use width="153" height="153" transform="translate(342.01 689.69) scale(1.05 1.03)" xlink:href="#New_Symbol_2"/>
        <use width="153" height="153" transform="translate(1181.71 890.14) scale(1.05 1.03)" xlink:href="#New_Symbol_2"/>
        <use width="153" height="153" transform="translate(1797.92 858.73) scale(1.05 1.03)" xlink:href="#New_Symbol_2"/>
        <use width="153" height="153" transform="translate(1761.97 535.33) scale(1.05 1.03)" xlink:href="#New_Symbol_2"/>
        <use width="153" height="153" transform="translate(1787.3 569.73) scale(1.05 1.03)" xlink:href="#New_Symbol_2"/>
        <use width="153" height="153" transform="translate(1627.76 302.66) scale(1.05 1.03)" xlink:href="#New_Symbol_2"/>
        <use width="153" height="153" transform="translate(1145.87 462.76) scale(1.05 1.03)" xlink:href="#New_Symbol_2"/>
        <use width="153" height="153" transform="translate(794.31 531.01) scale(1.05 1.03)" xlink:href="#New_Symbol_2"/>
        <use width="153" height="153" transform="translate(948.41 284.16) scale(1.05 1.03)" xlink:href="#New_Symbol_2"/>
        <use width="153" height="153" transform="translate(958.72 325.46) scale(1.05 1.03)" xlink:href="#New_Symbol_2"/>
        <use width="153" height="153" transform="translate(1084.14 88.17) scale(1.05 1.03)" xlink:href="#New_Symbol_2"/>
        <use width="153" height="153" transform="translate(1091.98 129.9) scale(1.05 1.03)" xlink:href="#New_Symbol_2"/>
        <use width="153" height="153" transform="translate(483.53 451.04) scale(1.05 1.03)" xlink:href="#New_Symbol_2"/>
        <use width="153" height="153" transform="translate(518.71 426.38) scale(1.05 1.03)" xlink:href="#New_Symbol_2"/>
        <use width="153" height="153" transform="translate(980.96 576.83) scale(1.05 1.03)" xlink:href="#New_Symbol_2"/>
        <use width="153" height="153" transform="translate(954.43 609.74) scale(1.05 1.03)" xlink:href="#New_Symbol_2"/>
        <use width="153" height="153" transform="translate(759.33 826.49) scale(1.05 1.03)" xlink:href="#New_Symbol_2"/>
        <use width="153" height="153" transform="translate(569.35 697.35) scale(1.05 1.03)" xlink:href="#New_Symbol_2"/>
        <use width="153" height="153" transform="translate(-1.18 805.16) scale(1.05 1.03)" xlink:href="#New_Symbol_2"/>
        <use width="153" height="153" transform="translate(1328.09 310.76) scale(1.05 1.03)" xlink:href="#New_Symbol_2"/>
        <use width="153" height="153" transform="translate(1331.56 610.89) scale(1.05 1.03)" xlink:href="#New_Symbol_2"/>
        <use width="153" height="153" transform="translate(1322.02 569.43) scale(1.05 1.03)" xlink:href="#New_Symbol_2"/>
        <use width="153" height="153" transform="translate(1462.85 557.31) scale(1.05 1.03)" xlink:href="#New_Symbol_2"/>
        <use width="153" height="153" transform="translate(1503.44 523.19) scale(1.05 1.03)" xlink:href="#New_Symbol_2"/>
        <use width="153" height="153" transform="translate(1461.31 502.58) scale(1.05 1.03)" xlink:href="#New_Symbol_2"/>
        <use width="153" height="153" transform="translate(1271.59 135.64) scale(1.05 1.03)" xlink:href="#New_Symbol_2"/>
        <use width="153" height="153" transform="translate(1260.66 90.21) scale(1.05 1.03)" xlink:href="#New_Symbol_2"/>
        <use width="153" height="153" transform="translate(735.08 101.66) scale(1.05 1.03)" xlink:href="#New_Symbol_2"/>
        <use width="153" height="153" transform="translate(368.64 91.09) scale(1.05 1.03)" xlink:href="#New_Symbol_2"/>
        <use width="153" height="153" transform="translate(403.29 110.74) scale(1.05 1.03)" xlink:href="#New_Symbol_2"/>
        <use width="153" height="153" transform="translate(150.2 118.54) scale(1.05 1.03)" xlink:href="#New_Symbol_2"/>
        <use width="153" height="153" transform="translate(191.2 140.97) scale(1.05 1.03)" xlink:href="#New_Symbol_2"/>
        <use width="153" height="153" transform="translate(173.49 195.11) scale(1.05 1.03)" xlink:href="#New_Symbol_2"/>
        <use width="153" height="153" transform="translate(1027.44 801.64) scale(1.05 1.03)" xlink:href="#New_Symbol_2"/>
        <use width="153" height="153" transform="translate(1100.71 821.29) scale(1.05 1.03)" xlink:href="#New_Symbol_2"/>
        <use width="153" height="153" transform="translate(1160.33 818.33) scale(1.05 1.03)" xlink:href="#New_Symbol_2"/>
        <use width="153" height="153" transform="translate(656.96 640.13) scale(1.05 1.03)" xlink:href="#New_Symbol_2"/>
        <use width="153" height="153" transform="translate(705.43 640.42) scale(1.05 1.03)" xlink:href="#New_Symbol_2"/>
        <use width="153" height="153" transform="translate(762.32 661.9) scale(1.05 1.03)" xlink:href="#New_Symbol_2"/>
        <use width="153" height="153" transform="translate(1407.98 830.02) scale(1.05 1.03)" xlink:href="#New_Symbol_2"/>
        <use width="153" height="153" transform="translate(1489.89 835.2) scale(1.05 1.03)" xlink:href="#New_Symbol_2"/>
        <use width="153" height="153" transform="translate(1766.79 122.25) scale(1.05 1.03)" xlink:href="#New_Symbol_2"/>
        <use width="153" height="153" transform="translate(1670.52 144.36) scale(1.05 1.03)" xlink:href="#New_Symbol_2"/>
        <use width="153" height="153" transform="translate(1685.96 184.53) scale(1.05 1.03)" xlink:href="#New_Symbol_2"/>
        <use width="153" height="153" transform="translate(1549.63 45) scale(1.05 1.03)" xlink:href="#New_Symbol_2"/>
        <use width="153" height="153" transform="translate(1474.68 66.15) scale(1.05 1.03)" xlink:href="#New_Symbol_2"/>
        <use width="153" height="153" transform="translate(1479.29 111.67) scale(1.05 1.03)" xlink:href="#New_Symbol_2"/>
        <use width="153" height="153" transform="translate(231.82 832.94) scale(1.05 1.03)" xlink:href="#New_Symbol_2"/>
        <use width="153" height="153" transform="translate(208.82 896.36) scale(1.05 1.03)" xlink:href="#New_Symbol_2"/>
        <use width="153" height="153" transform="translate(289.69 916.7) scale(1.05 1.03)" xlink:href="#New_Symbol_2"/>
        <use width="153" height="153" transform="translate(428.93 898.54) scale(1.05 1.03)" xlink:href="#New_Symbol_2"/>
        <use width="153" height="153" transform="translate(514.01 921.66) scale(1.05 1.03)" xlink:href="#New_Symbol_2"/>
        <use width="153" height="153" transform="translate(511.03 878.4) scale(1.05 1.03)" xlink:href="#New_Symbol_2"/>
        <use width="153" height="153" transform="translate(9.35 382.97) scale(1.05 1.03)" xlink:href="#New_Symbol_2"/>
        <use width="153" height="153" transform="translate(53.69 371.2) scale(1.05 1.03)" xlink:href="#New_Symbol_2"/>
        <use width="153" height="153" transform="translate(71.89 439.91) scale(1.05 1.03)" xlink:href="#New_Symbol_2"/>
        <use width="153" height="153" transform="translate(1709.1 868.38) scale(1.05 1.03)" xlink:href="#New_Symbol_2"/>
        <use width="153" height="153" transform="translate(1698.28 768.61) scale(1.05 1.03)" xlink:href="#New_Symbol_2"/>
        <use width="153" height="153" transform="translate(1653.24 697.24) scale(1.05 1.03)" xlink:href="#New_Symbol_2"/>
        <use width="153" height="153" transform="translate(1687.79 644.34) scale(1.05 1.03)" xlink:href="#New_Symbol_2"/>
        <use width="153" height="153" transform="translate(1646.24 625.58) scale(1.05 1.03)" xlink:href="#New_Symbol_2"/>
        <use width="153" height="153" transform="translate(0.55 59.8) scale(1.05 1.03)" xlink:href="#New_Symbol_2"/>
        <use width="153" height="153" transform="translate(-11 123.61) scale(1.05 1.03)" xlink:href="#New_Symbol_2"/>
        <use width="153" height="153" transform="translate(32.16 104.72) scale(1.05 1.03)" xlink:href="#New_Symbol_2"/>
        <use width="153" height="153" transform="translate(1388.3) scale(1.05 1.03)" xlink:href="#New_Symbol_2"/>
        <use width="153" height="153" transform="translate(1350.87 19.03) scale(1.05 1.03)" xlink:href="#New_Symbol_2"/>
        <use width="153" height="153" transform="translate(1375.6 108.69) scale(1.05 1.03)" xlink:href="#New_Symbol_2"/>
        <use width="153" height="153" transform="translate(595.42 4.68) scale(1.05 1.03)" xlink:href="#New_Symbol_2"/>
        <use width="153" height="153" transform="translate(555.96 26.95) scale(1.05 1.03)" xlink:href="#New_Symbol_2"/>
        <use width="153" height="153" transform="translate(597.03 69.67) scale(1.05 1.03)" xlink:href="#New_Symbol_2"/>
      </g>
      <g>
        <g class="cls-8">
          <path class="cls-9" d="M1124.75,251.17a6.93,6.93,0,0,0-5.71-1.37,37,37,0,0,0-2.91-12.21,20.19,20.19,0,0,0-3.1-4.24,7,7,0,0,0-1.24-1,12.92,12.92,0,0,0-4.33-1.52,54.26,54.26,0,0,0-6.78-.54,44.23,44.23,0,0,0-12.26-18.75c4.25-.8,10-6.69,10.06-11.78.14-9.45-16.4-17.1-16.75-16.69-.17.19,3.1,2.86,7.51,8.44,2.74,3.33,3.2,5,2.72,8.77-.27,2.58-.41,3.86-1.38,5.05-.57.78-3.27,2.74-4,4.71a27,27,0,0,0-34.4.65c-1-1.91-4.41-3.37-5.19-4-1.23-1-1.66-2.18-2.51-4.63-1.34-3.55-1.29-5.3.64-9.13,3-6.38,5.61-9.67,5.4-9.82-.43-.32-14.87,10.64-12.55,19.82,1.21,4.89,8,9.37,12.41,9.37-7.07,6.52-12.19,16.51-14,28.11a14.47,14.47,0,0,1-6.2-1,12.8,12.8,0,0,1-6.63-7.64,8.63,8.63,0,0,1,.13-4.53c.65-2.14,1.07-3.38,2.54-4.05,2.38-1.1,5.69-.12,8.34-.85a2.83,2.83,0,0,0,1.12-.52,1.47,1.47,0,0,0,.54-1.2c-.06-1.94-3.38-3.23-6.07-2.76a8.39,8.39,0,0,0-5.69,4c-.64,1-.24-5.24-3-6.14a5.58,5.58,0,0,0-3.68.58,2,2,0,0,0-.57,1c0,.33.19.53.41.85.44.63.14,1.09.61,1.72a10.26,10.26,0,0,1,1.62,3.31c-1.19-1.87-3.08-4.06-6-3.93a2.21,2.21,0,0,0-1,.22,1.36,1.36,0,0,0-.56.66,3.51,3.51,0,0,0,.87,4.21,7.07,7.07,0,0,0,5.63,1.28,33.74,33.74,0,0,0,2.88,11.53,19.23,19.23,0,0,0,3,4,7.39,7.39,0,0,0,1.22,1,11.24,11.24,0,0,0,4.28,1.42,23.72,23.72,0,0,0,5.69.3q-.29,2.88-.28,5.85c0,23.22,13.11,42.37,30,45.05a2.27,2.27,0,0,0-.48,1.39v10.74a2.37,2.37,0,0,0,2.41,2.32h1.26a2.38,2.38,0,0,0,2.42-2.32V295.94a2.22,2.22,0,0,0-.29-1.09c.56,0,1.12-.08,1.68-.14a2.05,2.05,0,0,0-.1.65V306.1a2.37,2.37,0,0,0,2.41,2.32h1.26a2.37,2.37,0,0,0,2.41-2.32V295.36a2.28,2.28,0,0,0-.85-1.76c13.07-4.21,23.2-18.43,25.54-36.23a7.13,7.13,0,0,0,4.2.56,8.52,8.52,0,0,0,5.77-4.19c.64-1.1.24,5.55,3,6.5a5.46,5.46,0,0,0,3.74-.6,2.26,2.26,0,0,0,.58-1c0-.35-.19-.57-.42-.91-.44-.66-.14-1.15-.62-1.82a10.87,10.87,0,0,1-1.64-3.51c1.21,2,3.12,4.31,6.08,4.17a2.17,2.17,0,0,0,1-.24,1.37,1.37,0,0,0,.56-.69A3.82,3.82,0,0,0,1124.75,251.17ZM1114.14,248c-.66,2.28-1.09,3.59-2.58,4.3-2.21,1.06-5.22.28-7.77.74.07-1.17.1-2.34.1-3.53a58.6,58.6,0,0,0-2.35-16.59l.61,1.08a13.76,13.76,0,0,1,5.4,1.11,12.07,12.07,0,0,1,1.47.8,13,13,0,0,1,2.36,2.15,11.46,11.46,0,0,1,2.89,5.14A9.44,9.44,0,0,1,1114.14,248Z"/>
          <path class="cls-10" d="M1124.75,251.17a6.93,6.93,0,0,0-5.71-1.37,37,37,0,0,0-2.91-12.21,20.19,20.19,0,0,0-3.1-4.24,7,7,0,0,0-1.24-1,12.92,12.92,0,0,0-4.33-1.52,54.26,54.26,0,0,0-6.78-.54,44.23,44.23,0,0,0-12.26-18.75c4.25-.8,10-6.69,10.06-11.78.14-9.45-16.4-17.1-16.75-16.69-.17.19,3.1,2.86,7.51,8.44,2.74,3.33,3.2,5,2.72,8.77-.27,2.58-.41,3.86-1.38,5.05-.57.78-3.27,2.74-4,4.71a27,27,0,0,0-34.4.65c-1-1.91-4.41-3.37-5.19-4-1.23-1-1.66-2.18-2.51-4.63-1.34-3.55-1.29-5.3.64-9.13,3-6.38,5.61-9.67,5.4-9.82-.43-.32-14.87,10.64-12.55,19.82,1.21,4.89,8,9.37,12.41,9.37-7.07,6.52-12.19,16.51-14,28.11a14.47,14.47,0,0,1-6.2-1,12.8,12.8,0,0,1-6.63-7.64,8.63,8.63,0,0,1,.13-4.53c.65-2.14,1.07-3.38,2.54-4.05,2.38-1.1,5.69-.12,8.34-.85a2.83,2.83,0,0,0,1.12-.52,1.47,1.47,0,0,0,.54-1.2c-.06-1.94-3.38-3.23-6.07-2.76a8.39,8.39,0,0,0-5.69,4c-.64,1-.24-5.24-3-6.14a5.58,5.58,0,0,0-3.68.58,2,2,0,0,0-.57,1c0,.33.19.53.41.85.44.63.14,1.09.61,1.72a10.26,10.26,0,0,1,1.62,3.31c-1.19-1.87-3.08-4.06-6-3.93a2.21,2.21,0,0,0-1,.22,1.36,1.36,0,0,0-.56.66,3.51,3.51,0,0,0,.87,4.21,7.07,7.07,0,0,0,5.63,1.28,33.74,33.74,0,0,0,2.88,11.53,19.23,19.23,0,0,0,3,4,7.39,7.39,0,0,0,1.22,1,11.24,11.24,0,0,0,4.28,1.42,23.72,23.72,0,0,0,5.69.3q-.29,2.88-.28,5.85c0,23.22,13.11,42.37,30,45.05a2.27,2.27,0,0,0-.48,1.39v10.74a2.37,2.37,0,0,0,2.41,2.32h1.26a2.38,2.38,0,0,0,2.42-2.32V295.94a2.22,2.22,0,0,0-.29-1.09c.56,0,1.12-.08,1.68-.14a2.05,2.05,0,0,0-.1.65V306.1a2.37,2.37,0,0,0,2.41,2.32h1.26a2.37,2.37,0,0,0,2.41-2.32V295.36a2.28,2.28,0,0,0-.85-1.76c13.07-4.21,23.2-18.43,25.54-36.23a7.13,7.13,0,0,0,4.2.56,8.52,8.52,0,0,0,5.77-4.19c.64-1.1.24,5.55,3,6.5a5.46,5.46,0,0,0,3.74-.6,2.26,2.26,0,0,0,.58-1c0-.35-.19-.57-.42-.91-.44-.66-.14-1.15-.62-1.82a10.87,10.87,0,0,1-1.64-3.51c1.21,2,3.12,4.31,6.08,4.17a2.17,2.17,0,0,0,1-.24,1.37,1.37,0,0,0,.56-.69A3.82,3.82,0,0,0,1124.75,251.17ZM1114.14,248c-.66,2.28-1.09,3.59-2.58,4.3-2.21,1.06-5.22.28-7.77.74.07-1.17.1-2.34.1-3.53a58.6,58.6,0,0,0-2.35-16.59l.61,1.08a13.76,13.76,0,0,1,5.4,1.11,12.07,12.07,0,0,1,1.47.8,13,13,0,0,1,2.36,2.15,11.46,11.46,0,0,1,2.89,5.14A9.44,9.44,0,0,1,1114.14,248Z"/>
        </g>
        <g>
          <ellipse class="cls-11" cx="1069" cy="228.97" rx="9.08" ry="8.7"/>
          <ellipse class="cls-12" cx="1069" cy="231.55" rx="4.56" ry="5"/>
        </g>
        <g>
          <path class="cls-13" d="M1076.27,256.33a3.22,3.22,0,0,1,1.74.68,2.53,2.53,0,0,1,.74,1.37c1.78,7.91-2,11.36-2,11.36a9.23,9.23,0,0,1-5.06,2.37,7.66,7.66,0,0,1-5.13-.82c-3.74-2.36-4.23-7.23-4.47-10.11-.1-1.24-.28-2,.15-2.73,1.23-2.09,6-2.31,6-2.31s2.09-.07,4.22-.08A23.63,23.63,0,0,1,1076.27,256.33Z"/>
          <path class="cls-11" d="M1065.13,256.64c2.9,5.32,4.16,7.52,4.76,8.5l1.2,1.93.67,1.69q1.7-4.27,3.22-9.05c.4-1.23.76-2.45,1.11-3.65"/>
        </g>
        <path class="cls-10" d="M1056.73,223.51a11,11,0,0,1,2.43-3.33,12.72,12.72,0,0,1,8.09-3.17"/>
        <path class="cls-14" d="M1061.12,276.29s-.13,0-.14,0a2.16,2.16,0,0,0,.52.21c1.78.6,4,1.26,6.34,1.86h.06a4.88,4.88,0,0,0-1.25-.46c-1.46-.39-2,.1-3.08-.21S1061.63,276.38,1061.12,276.29Z"/>
      </g>
      <g>
        <image class="cls-15" width="1070" height="391" transform="translate(470 289)" xlink:href="start11.png"/>
        <g>
          <image class="cls-16" width="1043" height="367" transform="translate(476 295)" xlink:href="start12.png"/>
          <g>
            <path class="cls-17" d="M551.21,538.46q17.1-14.22,34.85-27.13,23.94,34.35,48.23,68.45-3.48,2.55-6.95,5.16-4.33-3.42-8.72-6.8c-.86,11.8-4.37,20.22-10.91,25.62-10.75,8.89-23.3,11-38.44,6.2S537.89,594,521,575.6c-16.44-17.89-26.21-35.84-28.54-54.09s3.22-33.18,16.19-43.79c17.18-14,36.45-9.87,56.7,11.47q-3.33,8.46-6.44,16.94l-2.22-3-5.16-6.63c-11.57-14.11-22-17.66-31.13-10.3-6.67,5.41-8.18,13-4.44,22.58s14,24.52,30.93,44.86c15.77,19,27.41,31.1,34.7,36.52s13.17,6.22,17.71,2.47c5.33-4.39,4.24-11.42-3.33-21.28Q584.29,556.21,572.71,541q-5.94,4.71-11.79,9.59Q556.06,544.56,551.21,538.46Z"/>
            <path class="cls-17" d="M597.85,414.76c29.44-17.49,56-.42,79.28,47.61,23.37,48.23,23.42,77.78.47,91.63s-49.54,0-80.57-45.22C567.51,465.81,567.49,433.15,597.85,414.76ZM603.17,426c-5.37,3.24-6.62,9.54-3.67,18.73s11.29,25.14,25.1,47.77,24,37.37,30.5,44.36,11.82,9.14,16.19,6.48,5-8.44,2-17.52-11-25.18-23.77-48.39-22.24-38.38-28.64-45.52S608.53,422.78,603.17,426Z"/>
            <path class="cls-17" d="M686.33,372.31Q712.6,437,739.94,501.14q17.44-7.65,35.23-14.13,2.6,7.33,5.22,14.66a591.92,591.92,0,0,0-58.18,24.87q-33.6-69.87-65.92-140.4Q671.19,378.87,686.33,372.31Z"/>
            <path class="cls-17" d="M785.58,499.8q-25.4-73.26-49.43-147,22.08-7.74,44.47-14.05c32.24-8.93,53.13,13.69,62.82,64.45s1.82,78.38-24,85.72Q802.42,493.83,785.58,499.8Zm21-20.44c2.21-.67,4.43-1.34,6.65-2,6.09-1.79,9.09-7.44,9.16-17.15s-2.83-26.42-8.68-50.18-11.15-39.83-16.17-48.13-11.32-11.44-18.78-9.28q-4,1.17-8.06,2.39Q788.12,417.35,806.54,479.36Z"/>
            <path class="cls-17" d="M994.73,310.74q-2.81,77.49-4.18,155-12.25-.15-24.52.22-1.28-53.93-1.86-107.89Q954.66,412.31,949,466.72q-7.1.42-14.18,1Q922,415.56,906.69,363.87q5,52.83,10.58,105.57-4.26.48-8.51,1-9.33-76.95-17.26-154.1,16.23-2,32.51-3.31,12.21,46,22.58,92.26,6.18-47.22,15.25-94.33Q978.28,310.5,994.73,310.74Z"/>
            <path class="cls-17" d="M1059.16,311.72c32.49,3.42,43.22,32.85,33.35,85.28-9.85,52.65-26.87,76.54-52.16,74-25.24-2.36-37.32-29.65-35.22-84.39C1007.16,334.55,1025.51,308.46,1059.16,311.72Zm-2.37,12.2c-5.94-.58-10.49,3.73-13.49,12.87s-5.74,26.91-8.15,53.3-3,44.33-2.11,53.78,3.76,14.38,8.58,14.84,8.61-3.81,11.5-12.9,6.05-26.76,9.57-53,5-44.06,4.21-53.6S1062.72,324.51,1056.79,323.92Z"/>
            <path class="cls-17" d="M1199,342.31q-24,73.74-46.73,147.88-9.3-2.78-18.68-5.23a997.77,997.77,0,0,0-15.33-104.2q-10.38,48-20.21,96.05-4.17-.81-8.35-1.58,14.41-76.17,30.23-152.1,10,1.86,19.9,4a1008.32,1008.32,0,0,1,18.07,113.62q15.06-50.81,30.77-101.45Q1193.8,340.76,1199,342.31Z"/>
            <path class="cls-17" d="M1265.9,413.22q-7.26-1.1-14.51-2a76.12,76.12,0,0,0,5-9.22c7.33-16.44,3.91-27.78-10.58-33.35-11.43-4.35-19.39-.49-23.72,11.13-3.28,8.75.18,18.35,9.66,29.11,18.36,20.86,20.93,43.13,10.39,65.79-6.16,13.35-13.94,22.78-23,28.56s-18,6.91-27.11,3.45c-20-7.55-25.81-24.69-16.61-53.07.76-2.3,1.81-5.11,3.16-8.41q7.1-.24,14.24-.32a109.08,109.08,0,0,0-7.18,15.68c-6.33,18.19-3.47,29.21,8.32,33.61,9.45,3.56,16.78-.88,22.16-13.67,4-9.48,1.64-20.3-7.85-32.16-13.68-17-17.51-36.81-9.58-60.16,4.51-13.19,11.48-22.77,21.2-28.48s20.34-6.48,31.46-2.21C1274.37,366.39,1278.93,385.52,1265.9,413.22Z"/>
            <path class="cls-17" d="M1370.54,419.09q-4.21,6.56-8.41,13.11-11.54-7.05-23.28-13.64-35.38,60.13-69.74,120.85-11.89-6.61-24-12.65,31.47-62.25,64-124-12.06-6-24.31-11.6,3.36-7,6.75-14A734.8,734.8,0,0,1,1370.54,419.09Z"/>
            <path class="cls-17" d="M1437.88,465.67l-9.82,12.08q-15.81-12.27-32.15-23.57-13.74,19-27.37,38.12,12.84,8.85,25.33,18.36-4.8,6.1-9.61,12.24Q1372,513.62,1359.51,505q-17.82,25-35.43,50.23,15.84,10.88,31.07,22.86-4.87,6.07-9.72,12.15a578,578,0,0,0-51.88-36.4q41.45-65.54,84.14-130.29Q1408.62,443,1437.88,465.67Z"/>
            <path class="cls-17" d="M1351.83,595.33q49.22-59.9,99.61-118.85,19.08,15.57,37.3,32.59c9.48,8.86,14.28,18.79,14.35,29.27s-4.59,19.83-13.64,28.1c-13.9,12.68-28.15,15.3-42.84,8.87,2.48,8.35,2.56,15.09.44,20.17s-8.26,12.9-18.36,23.48q-18,18.91-21.46,27.5-10-10.53-20.47-20.45c3.68-6.43,9.2-13.56,16.66-21.3q3.15-3.36,6.29-6.71l8-8.43c12.47-12.79,15.27-22.51,8.16-29L1422,557.2q-25.2,27.45-50.15,55.12Q1362,603.58,1351.83,595.33Zm78.87-47.58q2.29,2,4.57,4.11c8.49,7.72,18.88,5.45,31.49-7.14s14.43-23.23,5.19-31.67L1467,508.6Q1448.79,528.12,1430.7,547.75Z"/>
          </g>
        </g>
      </g>
    </g>
  </g>
</svg>
