<svg xmlns="http://www.w3.org/2000/svg" xmlns:xlink="http://www.w3.org/1999/xlink" width="375" height="119" viewBox="0 0 375 119">
  <defs>
    <style>
      .cls-1 {
        stroke: #231f20;
        stroke-miterlimit: 10;
        fill: url(#linear-gradient);
      }
    </style>
    <linearGradient id="linear-gradient" x1="0.5" y1="59.5" x2="369.47" y2="59.5" gradientUnits="userSpaceOnUse">
      <stop offset="0" stop-color="#f7931e"/>
      <stop offset="0.27" stop-color="#f46b20"/>
      <stop offset="0.59" stop-color="#f04022"/>
      <stop offset="0.85" stop-color="#ee2624"/>
      <stop offset="1" stop-color="#ed1c24"/>
    </linearGradient>
  </defs>
  <g id="Layer_6" data-name="Layer 6">
    <g>
      <rect class="cls-1" x="0.5" y="0.5" width="374" height="118" rx="57.7"/>
      <g>
        <path d="M101.2,47.7l-8,1.1a13.3,13.3,0,0,0,.5-3c0-5.2-4.2-7.8-12.5-7.8-6.6-.1-9.9,1.7-9.9,5.3s3.6,5,11,7c14.2,3.7,21.3,9.2,21.3,16.4q0,6.5-6,10.2T81.7,80.8c-14.7-.1-22-4.4-22-13,0-.7.1-1.6.2-2.6l8.3-1.4a17.6,17.6,0,0,0-1,5c0,5.6,4.2,8.3,12.6,8.4q10.2,0,10.2-6c0-3-4-5.6-12.1-7.9C66.2,60,60.4,54.9,60.4,47.7c0-4,2-7.2,5.9-9.7s9-3.6,15.4-3.6C94.7,34.4,101.2,38.9,101.2,47.7Z"/>
        <path d="M152.8,35.3v4.5H138.3V80.1H119.9l.2-40.3H105.4V35.2Z"/>
        <path d="M184.2,35.4l16.4,44.9H183.3l-3.5-9.7H162l-3.8,9.7h-6.7l17.6-44.7ZM163.7,65.9h14.5l-6.9-19.9Z"/>
        <path d="M205.2,80.3l.2-44.8h25.4c6.7,0,12,1.1,15.9,3.2s5.9,5,5.9,8.5c0,5.5-4.2,9-12.8,10.6,4.4,1.2,7.2,2.6,8.5,4.1s2.2,4.3,2.6,8.5,1.7,8.4,3.3,10H235.6a14.9,14.9,0,0,1-1.8-7.7v-6c0-5.2-2.8-7.8-8.3-7.8h-2.9V80.3Zm17.3-25.2H226c6.5,0,9.7-2.6,9.8-7.7s-3.3-7.7-9.8-7.7h-3.5Z"/>
        <path d="M303.1,35.7v4.5H288.6l-.2,40.3H270.2V40.1H255.7V35.6Z"/>
      </g>
    </g>
  </g>
</svg>
